<?xml version="1.0" encoding="UTF-8"?>
<svg xmlns="http://www.w3.org/2000/svg" xmlns:xlink="http://www.w3.org/1999/xlink" width="290.845" height="104.495" viewBox="0 0 290.845 104.495">
  <defs>
    <clipPath id="clip-path">
      <path id="Path_65" data-name="Path 65" d="M125.062,856.263a3.465,3.465,0,0,0-5.161.284,10.191,10.191,0,0,0-1.464,4.761s.062,3.7,2.482,5.481a.682.682,0,0,0,.756-.423,54.861,54.861,0,0,1,3.432-8.939,1.138,1.138,0,0,0-.045-1.164m-3.749,21.981a3.472,3.472,0,0,0-3.412,3.89,9.683,9.683,0,0,0,2.307,4.442s2.828,2.809,5.792,2.327a.685.685,0,0,0,.228-.837,61.865,61.865,0,0,1-4.055-9.038A1.136,1.136,0,0,0,121.313,878.244Zm9.715,15.9c-.083.035-3.222,2.359-.85,5.257a8.151,8.151,0,0,0,4.878,2.115s3.641.564,5.745-1.581a.685.685,0,0,0-.31-.81,65.734,65.734,0,0,1-8.308-4.859A1.133,1.133,0,0,0,131.028,894.14Zm38.553-.05a3.6,3.6,0,0,1,.667,5.024,11.189,11.189,0,0,1-4.731,2.427s-3.477.358-5.716-1.646a.685.685,0,0,1,.257-.828,35.361,35.361,0,0,0,8.352-4.684A1.136,1.136,0,0,1,169.58,894.09Zm9.377-15.6a3.156,3.156,0,0,1,3.136,3.863,10.159,10.159,0,0,1-2.568,4.61,7.582,7.582,0,0,1-5.043,1.766.684.684,0,0,1-.227-.837,25.811,25.811,0,0,0,3.872-8.525S178.292,878.585,178.958,878.487Zm-3.519-21.91a3.149,3.149,0,0,1,4.913.749,10.164,10.164,0,0,1,1.191,5.143s-.36,3.276-2.229,4.735a.682.682,0,0,1-.73-.467,30.457,30.457,0,0,0-3.171-8.951A1.14,1.14,0,0,1,175.439,856.577Zm-15.464-12.5s.1-3.9,4.3-2.816a9.011,9.011,0,0,1,4.1,3.291s1.794,2.748,1.185,5.054c0,0-.171.363-.7.189A28.993,28.993,0,0,0,160.722,845S159.979,844.743,159.975,844.075Zm-19.273-.187a3.354,3.354,0,0,0-4.111-3.036,10.159,10.159,0,0,0-4.067,2.866,7.275,7.275,0,0,0-1.655,5.568.6.6,0,0,0,.815.226,23.3,23.3,0,0,1,8.251-4.9S140.683,844.562,140.7,843.888Zm16.318-.183c.268-.031.716-.208.456-1.095a4.971,4.971,0,0,1,.561-4.119,6.294,6.294,0,0,0,1.343-6.653,2.311,2.311,0,0,0-2.318-1.64s-.515-.073-.294-.921c0,0,.285-.691-.671-1.4,0,0-.874-.774.009-.958,0,0,1.563.138,3.6,2.221a13.526,13.526,0,0,1,2.943,4.976s.24,1.189,1.049.857c0,0,.451-.285.947.415a7.557,7.557,0,0,0,1,.87c.786.561,1.8,1.123,2.053,1.3,1.842.806,7.32,6.048,3.961,14.03a2.1,2.1,0,0,0,.051.847q.9,1,1.715,2.073c.236.121.6.124.929-.61a6.265,6.265,0,0,1,4.532-2.962s4.02-1.185,3.863-5.134a4.945,4.945,0,0,0-.975-1.642s1.214-.774.956-1.77c0,0-.736-2.211.809-.7,0,0,2.451,3.3-.047,9.687a.642.642,0,0,0,.428.753s.746.115.559,1.054a10.843,10.843,0,0,0,1.133,3.835,10.752,10.752,0,0,1-1.258,8.767,12.1,12.1,0,0,1-4.9,4.305.657.657,0,0,0-.26.42c.021.453.033.909.033,1.367a29.138,29.138,0,0,1-.231,3.664c.011.151.117.822,1.081.53,0,0,2.624-1.117,4.559.131,0,0,2.718,2.676,6.848.33a2.2,2.2,0,0,0,.793-2s-.185-.776,1.014-.628c0,0,.645.185,1.475-1.09a.535.535,0,0,1,.688-.137s.256.215-.006.615c0,0-1.075,3.037-2.592,4.254a16.106,16.106,0,0,1-4.281,2.709s-.482.223-.037,1.488c0,0-1.039.744-2.115,3.607,0,0-3.6,8.069-12.73,5.875,0,0-1.448-.644-2.02.206,0,0-.947.89-.119,1.285,0,0,2.7.732,3.493,1.978a7.516,7.516,0,0,1,1.182,2.493,5.58,5.58,0,0,0,4.854,3.063,2.378,2.378,0,0,0,2.029-1.364s.462-.386.925.232c0,0,.411,1,1.721.283,0,0,.616-.386.668.18,0,0-.231.9-2.722,1.879a11.554,11.554,0,0,1-5.805.412s-2-.515-2.132.129c-.117.387.087.8-1.1.849a13.29,13.29,0,0,0-3.389,1.684s-4.445,2.778-10.266-.316a12.527,12.527,0,0,1-2.834-2.316s-1.063-1.2-1.012-1.369c0,0-.213-.394-1.027-.292q-.478.1-.961.183a.924.924,0,0,0-.61.548,6.794,6.794,0,0,0-.328,1.1,4.537,4.537,0,0,1-1.6,2.206s-.542.346-.388.809a3.72,3.72,0,1,1-4.984,1.086,3.692,3.692,0,0,1,1.1-1.04.674.674,0,0,0-.21-.613,5.957,5.957,0,0,1-1.728-2.636s-.1-1.036-.745-1.368q-.673-.1-1.335-.237a1.066,1.066,0,0,0-.861.42,13.937,13.937,0,0,1-2.631,2.838,11.6,11.6,0,0,1-12.768.572,4.658,4.658,0,0,0-2.979-1.193s-.456-.105-.7-.983c0,0-5.187.7-7.114.035,0,0-2.7-.7-3.539-2.142,0,0-.122-.291.659-.127a1.69,1.69,0,0,0,2.016-.526s.283-.323.65.053a2.275,2.275,0,0,0,2.863,1.1,6.546,6.546,0,0,0,3.371-1.849s.816-.534,1.676-2.9a4.185,4.185,0,0,1,3.028-2.437s1.577-.248,1.309-1.043q-.446-.457-.872-.933a1.312,1.312,0,0,0-.951-.013,10.631,10.631,0,0,1-5.145.464,11.122,11.122,0,0,1-7.558-4.381,14.514,14.514,0,0,1-1.552-2.894,6.362,6.362,0,0,0-1.168-2.052s-.746-.55-.473-1.149c0,0,.149-.5-.141-.687s-1.821-1.1-2.038-1.274c0,0-2.8-1.74-3.73-3.3a9.913,9.913,0,0,1-1.308-2.693s-.324-.446-.411-.406c0,0-.235-.424.416-.479a.744.744,0,0,1,.6.345s.635,1.146,1.364,1.115a1.038,1.038,0,0,0,.415-.094.546.546,0,0,1,.674.243,4.524,4.524,0,0,0,.491,1.874s1.233,2.086,5.349,1.325a9.167,9.167,0,0,0,2.245-1.034,4.325,4.325,0,0,1,3.357-.591,11.125,11.125,0,0,1,1.671.513.87.87,0,0,0,.8-.167,29.14,29.14,0,0,1-.269-3.947c0-.6.02-1.194.057-1.785a1.461,1.461,0,0,0-.7-.573s-4.512-2.642-5.446-5.867c0,0-1.7-4.289-.166-7.829a11.126,11.126,0,0,0,.988-3.953c.137-.316.928-.458.857-.6a1.343,1.343,0,0,0-.012-.752,6.262,6.262,0,0,1-.521-1.732s-1.666-5.05.921-8.173c0,0,.431-.2.419.569,0,0-.277,1.434.407,1.723,0,0,.815.188.28.848,0,0-1.056,1.141-.8,2.131a5.747,5.747,0,0,0,1.677,3.1,4.991,4.991,0,0,0,2.295,1.349s2.526.483,3.381,1.439a11.926,11.926,0,0,1,1.448,2.223.763.763,0,0,0,.885.286q.849-1.105,1.8-2.124a1.365,1.365,0,0,0-.06-1.052c-.338-.625-3.258-9.936,4.318-14.024,0,0,2.768-1.314,3.109-2.384a.633.633,0,0,1,.91-.207s.632.268.9-.633a14.9,14.9,0,0,1,2.794-4.76s2.029-2.2,3.725-2.133c0,0,.316.216-.283.633a1.331,1.331,0,0,0-.433,1.45s.5.916-.432.9a3.338,3.338,0,0,0-1.9.95,5.443,5.443,0,0,0-.648,3.4s.073,1.942.968,2.693c0,0,1.936,2.253,1.541,3.839a3.993,3.993,0,0,1-.25,1.5s-.32,1.369.632,1.278l.3-.064.069-.024.124-.018a29.06,29.06,0,0,1,3.572-.506c.2-.024.336-.039.386-.039a1.293,1.293,0,0,0,.916-1.523,2.792,2.792,0,0,0-1.187-1.085s-2.637-1.828-2.5-4.152a4.552,4.552,0,0,1,.932-2.8,13,13,0,0,1,2.106-2.42s.377-.368-.122-.817a4.069,4.069,0,0,1-1.467-1.786,2.889,2.889,0,0,1,.245-2.613,8.485,8.485,0,0,1,1.639-1.786,5.26,5.26,0,0,0,1.2-1.67s.338-1.078.844-.169a7.027,7.027,0,0,0,1.73,2.368s2.11,1.734,1.351,3.848a3.967,3.967,0,0,1-1.741,1.916s-.213.9,1.738,2.385a5.046,5.046,0,0,1,.982,5.339,8.87,8.87,0,0,1-3.325,3.256,1.448,1.448,0,0,0,.7,1.733A29.145,29.145,0,0,1,157.02,843.7Z" transform="translate(-103.935 -821.752)" fill="none" clip-rule="evenodd"></path>
    </clipPath>
    <clipPath id="clip-path-2">
      <path id="Path_70" data-name="Path 70" d="M165.037,1114.768s1.2-.162.161-1.156c0,0-7.985-5.645-12.929-6.8a48.606,48.606,0,0,1,2.781,5.883s-4.856.8-6.357,2.123c2.562.355,7.183,2.553,9.447,4.2Z" transform="translate(-148.694 -1106.816)" fill="#ffca18" clip-rule="evenodd"></path>
    </clipPath>
    <clipPath id="clip-path-3">
      <path id="Path_72" data-name="Path 72" d="M321.119,1114.768s-1.2-.162-.161-1.156c0,0,7.985-5.645,12.929-6.8a48.606,48.606,0,0,0-2.781,5.883s4.856.8,6.357,2.123c-2.562.355-7.183,2.553-9.447,4.2Z" transform="translate(-320.534 -1106.816)" fill="#ffca18" clip-rule="evenodd"></path>
    </clipPath>
    <clipPath id="clip-path-4">
      <path id="Path_76" data-name="Path 76" d="M174.31,1126.5s-.626.482,1.692,1.919c0,0,6.751,4.921,13,5.879s12.981,1.914,24.1-3.883c2.244-1.291,3.637-1.985,4.535-3.546a26.388,26.388,0,0,0,5.334,7.02s.783.239-2.969,2.584c0,0-8.844,7.364-25.033,7.428,0,0-14.4-.319-25.047-8.876-1.407-1.037-1.287-1.173-1.062-1.354a15.723,15.723,0,0,0,1.852-1.662c.931-1.312,2.075-2.773,2.869-4.132.294-.5.516-.975.729-1.379" transform="translate(-168.723 -1126.499)" fill="#ffca18" clip-rule="evenodd"></path>
    </clipPath>
  </defs>
  <g id="Group_911" data-name="Group 911" transform="translate(995.774 2939.315)">
    <text id="COLLEGE_OF_ARTS_AND_SCIENCE" data-name="COLLEGE OF ARTS AND SCIENCE" transform="translate(-892.428 -2842.572)" fill="#ffca18" font-size="11" font-family="TimesNewRomanPS-BoldMT, Times New Roman" font-weight="700">
      <tspan x="0" y="0">COLLEGE OF ARTS AND SCIENCE</tspan>
    </text>
    <g id="Group_340" data-name="Group 340" transform="translate(-995.774 -2939.315)">
      <g id="Group_12" data-name="Group 12" transform="translate(0 0)">
        <g id="Group_11" data-name="Group 11" clip-path="url(#clip-path)">
          <path id="Path_64" data-name="Path 64" d="M152.695,763.97,47.73,782.783,66.461,887.29l104.965-18.813Zm-25.463,71.086a3.608,3.608,0,0,0-2.368.566,1.69,1.69,0,0,0-.631,2.049,4.3,4.3,0,0,0,1.2,1.741c1.467,1.51,1.224,2.107-.368,3.589-.508.474-.967.968-1.451,1.45-1.044,1.039-2.087,2.66-3.514,1.971a8.807,8.807,0,0,1-1.634-1.3c-1.082-.94-3.092-1.077-3.591,1.018-.215.906.1,1.774-.337,2.594a2.009,2.009,0,0,1-.74.743,5.08,5.08,0,0,1-1.039.386c-.854.061-3.273.01-4.381,0a2.219,2.219,0,0,1-2.427-1.93,5.961,5.961,0,0,0-.45-2.49,1.737,1.737,0,0,0-1.9-.96,2.986,2.986,0,0,0-1.877,1.062,2.942,2.942,0,0,1-1.854,1.075c-1.158-.029-2.468-1.718-3.274-2.552-.493-.51-.941-.915-1.451-1.483-1.582-1.762-.361-2.573.6-3.737a2.407,2.407,0,0,0,.7-1.938q-.254-.556-.462-1.137c-.115-.077-.237-.182-.346-.246-1.487-.877-2.921-.055-3.982-1.091a2.662,2.662,0,0,1-.715-2.213q0-1.451,0-2.9a3.181,3.181,0,0,1,.566-2.363c1.211-1.47,2.768-.03,4.446-1.418a2.138,2.138,0,0,0,.45-2.231c-.354-1.3-2.5-2.106-1.8-3.785a7.147,7.147,0,0,1,1.3-1.638,27.515,27.515,0,0,1,2.989-2.84c1.726-1.172,2.527.728,3.708,1.378a2.448,2.448,0,0,0,2.339.044c1.748-1.075.143-4.218,2.419-4.867a24.335,24.335,0,0,1,4.2-.148,3.765,3.765,0,0,1,2.441.493c1.421,1.084.054,3.162,1.516,4.354a2.184,2.184,0,0,0,2.266.228c1.481-.623,2.3-2.512,3.782-1.62a29.835,29.835,0,0,1,3.009,2.824c1.133,1.167,2.473,2.135,1.227,3.568a9.142,9.142,0,0,0-1.357,1.58,1.965,1.965,0,0,0-.1,2.227,2.743,2.743,0,0,0,1.869,1.071c.888.084,1.887-.085,2.526.4a2.606,2.606,0,0,1,.806,2.1c.011.966,0,1.935,0,2.9C129.543,833.591,129.637,834.908,127.232,835.056Z" transform="translate(-63.793 -780.483)" fill="#ffca18"></path>
        </g>
      </g>
      <path id="Path_66" data-name="Path 66" d="M193.145,895.7A28.919,28.919,0,1,0,222.1,924.622,28.936,28.936,0,0,0,193.145,895.7Zm17.265,33.439a3.608,3.608,0,0,0-2.368.566,1.69,1.69,0,0,0-.631,2.049,4.3,4.3,0,0,0,1.2,1.741c1.467,1.51,1.224,2.107-.368,3.589-.508.474-.967.968-1.451,1.45-1.044,1.039-2.087,2.66-3.514,1.971a8.808,8.808,0,0,1-1.634-1.3c-1.082-.94-3.092-1.077-3.591,1.018-.215.906.1,1.774-.337,2.594a2.009,2.009,0,0,1-.74.743,5.08,5.08,0,0,1-1.039.386c-.854.061-3.273.01-4.381,0a2.219,2.219,0,0,1-2.427-1.93,5.961,5.961,0,0,0-.45-2.49,1.737,1.737,0,0,0-1.9-.96,2.986,2.986,0,0,0-1.877,1.062,2.942,2.942,0,0,1-1.854,1.075c-1.158-.029-2.468-1.718-3.274-2.552-.493-.51-.941-.915-1.451-1.483-1.582-1.762-.361-2.573.6-3.737a2.407,2.407,0,0,0,.7-1.938q-.254-.556-.462-1.137c-.115-.077-.237-.182-.346-.246-1.487-.877-2.921-.055-3.982-1.091a2.662,2.662,0,0,1-.715-2.213q0-1.451,0-2.9a3.181,3.181,0,0,1,.566-2.363c1.211-1.47,2.768-.03,4.446-1.418a2.138,2.138,0,0,0,.45-2.231c-.354-1.3-2.5-2.106-1.8-3.785a7.148,7.148,0,0,1,1.3-1.638,27.515,27.515,0,0,1,2.989-2.84c1.726-1.172,2.527.728,3.708,1.378a2.448,2.448,0,0,0,2.339.044c1.748-1.075.143-4.218,2.419-4.867a24.335,24.335,0,0,1,4.2-.148,3.765,3.765,0,0,1,2.441.493c1.421,1.084.054,3.162,1.516,4.354a2.184,2.184,0,0,0,2.266.228c1.481-.623,2.3-2.512,3.782-1.62a29.834,29.834,0,0,1,3.009,2.824c1.133,1.167,2.473,2.135,1.227,3.568a9.142,9.142,0,0,0-1.357,1.58,1.965,1.965,0,0,0-.1,2.227,2.743,2.743,0,0,0,1.869,1.071c.888.084,1.887-.085,2.526.4a2.606,2.606,0,0,1,.806,2.1c.011.966,0,1.935,0,2.9C212.722,927.677,212.816,928.994,210.411,929.142Z" transform="translate(-146.971 -874.569)" fill="#ffca18"></path>
      <path id="Path_67" data-name="Path 67" d="M223.692,921.955a1.052,1.052,0,0,0-.508.522.6.6,0,0,0,.032.522.587.587,0,0,0,.422.291,1.017,1.017,0,0,0,.68-.172,1.14,1.14,0,0,0,.54-.535.6.6,0,0,0-.035-.531.576.576,0,0,0-.425-.29,1.1,1.1,0,0,0-.707.193m-.4,1.746.269-.155a.759.759,0,0,1-.654-.412.952.952,0,0,1-.128-.546,1.065,1.065,0,0,1,.2-.554,1.553,1.553,0,0,1,.508-.448,1.737,1.737,0,0,1,.635-.225.958.958,0,0,1,.577.09.971.971,0,0,1,.408.393.814.814,0,0,1,.115.388.825.825,0,0,1-.071.365l1.051-.606.207.36-2.923,1.684Zm-2.393-3.447,1.921-1.513.23.293-.273.215a.877.877,0,0,1,.793.365,1.021,1.021,0,0,1,.188.369.64.64,0,0,1,.008.347.8.8,0,0,1-.16.29,2.411,2.411,0,0,1-.3.267l-1.18.929-.256-.326,1.167-.919a1.114,1.114,0,0,0,.268-.272.4.4,0,0,0,.052-.259.551.551,0,0,0-.119-.273.669.669,0,0,0-.413-.255.826.826,0,0,0-.619.243l-1.048.825Zm.164-1.619a3.04,3.04,0,0,1-.58-.384,1.585,1.585,0,0,0-.31-.206.365.365,0,0,0-.209-.026.361.361,0,0,0-.294.374.548.548,0,0,0,.174.343.856.856,0,0,0,.37.237.64.64,0,0,0,.395,0,.987.987,0,0,0,.344-.237Zm-.642.659a1.552,1.552,0,0,1-.507-.131,1.275,1.275,0,0,1-.374-.276.894.894,0,0,1-.286-.585.647.647,0,0,1,.213-.5.671.671,0,0,1,.294-.167.681.681,0,0,1,.319-.009,1.015,1.015,0,0,1,.3.123,3.038,3.038,0,0,1,.3.225,3.805,3.805,0,0,0,.613.438l.079-.072a.457.457,0,0,0,.176-.331.7.7,0,0,0-.225-.439.736.736,0,0,0-.373-.243.624.624,0,0,0-.406.1l-.239-.333a1.006,1.006,0,0,1,.43-.159.8.8,0,0,1,.432.1,1.642,1.642,0,0,1,.446.343,1.481,1.481,0,0,1,.3.421.584.584,0,0,1-.051.626,2.385,2.385,0,0,1-.261.278l-.4.38a6,6,0,0,0-.51.523.941.941,0,0,0-.143.277l-.3-.314A.922.922,0,0,1,220.418,919.293Zm-4.458-3.32,1.954-2.753.338.24-.7.991a.913.913,0,0,1,.789.147.978.978,0,0,1,.321.359.629.629,0,0,1,.061.406,1.375,1.375,0,0,1-.247.5l-.9,1.263-.338-.241.9-1.262a.644.644,0,0,0,.153-.446.5.5,0,0,0-.226-.335.664.664,0,0,0-.336-.122.54.54,0,0,0-.337.078,1.2,1.2,0,0,0-.316.328l-.773,1.089Zm-.183-.509-.133.346a1.549,1.549,0,0,1-.289-.123.7.7,0,0,1-.267-.237.4.4,0,0,1-.058-.25,1.5,1.5,0,0,1,.2-.45l.7-1.223-.265-.153.16-.278.265.153.3-.525.483-.009-.425.741.359.207-.16.278-.359-.207-.713,1.243a.71.71,0,0,0-.095.209.171.171,0,0,0,.021.105.276.276,0,0,0,.107.1A1.29,1.29,0,0,0,215.778,915.465Zm-1.9-.612,1.537-3.006.369.189-1.537,3.007Zm-.5-1.576a3.036,3.036,0,0,1-.688-.1,1.562,1.562,0,0,0-.368-.057.361.361,0,0,0-.2.065.361.361,0,0,0-.11.463.544.544,0,0,0,.3.238.852.852,0,0,0,.434.059.641.641,0,0,0,.359-.164.992.992,0,0,0,.213-.36Zm-.306.868a1.555,1.555,0,0,1-.515.1,1.272,1.272,0,0,1-.455-.093.888.888,0,0,1-.5-.41.646.646,0,0,1-.018-.546.675.675,0,0,1,.482-.417,1.018,1.018,0,0,1,.327-.017,3.129,3.129,0,0,1,.366.078,3.771,3.771,0,0,0,.74.139l.042-.1a.457.457,0,0,0,.021-.375.694.694,0,0,0-.388-.3.728.728,0,0,0-.44-.063.623.623,0,0,0-.325.263l-.356-.2a1,1,0,0,1,.323-.325.805.805,0,0,1,.432-.095,1.644,1.644,0,0,1,.548.124,1.47,1.47,0,0,1,.448.256.675.675,0,0,1,.2.278.663.663,0,0,1,.017.311,2.371,2.371,0,0,1-.12.362l-.2.512a5.911,5.911,0,0,0-.243.689.935.935,0,0,0-.014.312l-.4-.159A.929.929,0,0,1,213.067,914.145Zm-3.419-2.341,1.309.372a.83.83,0,0,0-.024-.488.634.634,0,0,0-.427-.371.657.657,0,0,0-.513.053A.761.761,0,0,0,209.647,911.8Zm1.123,1.011.4.172a1.037,1.037,0,0,1-.518.457,1.265,1.265,0,0,1-1.453-.542,1.292,1.292,0,0,1-.049-.976,1.349,1.349,0,0,1,.565-.833,1.069,1.069,0,0,1,.883-.1,1.04,1.04,0,0,1,.677.539,1.33,1.33,0,0,1,.042.988c-.007.023-.017.059-.032.105l-1.751-.5a.94.94,0,0,0,.051.655.676.676,0,0,0,.432.345.627.627,0,0,0,.406-.01A.8.8,0,0,0,210.77,912.814Zm-5.124-.132.425-3.351.444.057-.175,1.381,1.728.22.175-1.381.444.057-.425,3.351-.444-.057.2-1.577-1.728-.22-.2,1.577Zm-2.439.053-.085-3.377.414-.011.085,3.377Zm-1.2-1.124a3.019,3.019,0,0,1-.653.24,1.566,1.566,0,0,0-.349.128.364.364,0,0,0-.145.153.353.353,0,0,0-.033.2.348.348,0,0,0,.159.256.545.545,0,0,0,.378.063.862.862,0,0,0,.41-.158.645.645,0,0,0,.236-.317.994.994,0,0,0,.014-.418Zm.148.909a1.536,1.536,0,0,1-.406.331,1.262,1.262,0,0,1-.444.138.888.888,0,0,1-.639-.117.644.644,0,0,1-.278-.47.674.674,0,0,1,.039-.336.682.682,0,0,1,.183-.263,1.019,1.019,0,0,1,.279-.172,3.111,3.111,0,0,1,.358-.108,3.767,3.767,0,0,0,.715-.235c-.005-.056-.009-.092-.011-.107a.456.456,0,0,0-.162-.338.692.692,0,0,0-.486-.079.732.732,0,0,0-.416.157.626.626,0,0,0-.159.387l-.409,0a1.007,1.007,0,0,1,.128-.441.807.807,0,0,1,.333-.292,1.645,1.645,0,0,1,.54-.156,1.469,1.469,0,0,1,.515.009.582.582,0,0,1,.473.412,2.385,2.385,0,0,1,.068.376l.069.546a5.938,5.938,0,0,0,.118.721.938.938,0,0,0,.137.28l-.43.055A.922.922,0,0,1,202.159,912.52Zm-4.084,1.151-.668-2.355.358-.1.095.334a.88.88,0,0,1,.638-.6,1.02,1.02,0,0,1,.412-.035.641.641,0,0,1,.324.125.794.794,0,0,1,.207.259,2.42,2.42,0,0,1,.132.382l.41,1.446-.4.113-.406-1.431a1.127,1.127,0,0,0-.149-.352.4.4,0,0,0-.219-.146.545.545,0,0,0-.3.007.666.666,0,0,0-.392.286.83.83,0,0,0-.01.666l.364,1.285Zm-2.653-.326a1.037,1.037,0,0,0,.447.578.685.685,0,0,0,.959-.38,1.064,1.064,0,0,0-.071-.74,1,1,0,0,0-.443-.562.686.686,0,0,0-.958.377A1.034,1.034,0,0,0,195.422,913.345Zm-.394.155a1.258,1.258,0,0,1-.017-1.074,1.137,1.137,0,0,1,.615-.535,1.1,1.1,0,0,1,.887,0,1.253,1.253,0,0,1,.631.731,1.613,1.613,0,0,1,.14.742,1,1,0,0,1-.23.542,1.2,1.2,0,0,1-.494.356,1.1,1.1,0,0,1-.892,0A1.311,1.311,0,0,1,195.027,913.5Zm-.342,1.556-1.114-2.179.369-.19,1.114,2.179Zm-1.322-2.587-.215-.42.369-.189.215.42Zm.77,2.446.231.289a1.538,1.538,0,0,1-.252.188.705.705,0,0,1-.338.112.4.4,0,0,1-.245-.076,1.5,1.5,0,0,1-.288-.4l-.7-1.223-.265.153-.16-.278.265-.153-.3-.525.235-.423.425.741.359-.207.159.278-.359.207.714,1.243a.7.7,0,0,0,.133.187.17.17,0,0,0,.1.035.274.274,0,0,0,.137-.045A1.284,1.284,0,0,0,194.134,914.916Zm-2.209.317a3.065,3.065,0,0,1-.463.52,1.569,1.569,0,0,0-.248.278.364.364,0,0,0-.056.2.354.354,0,0,0,.066.194.349.349,0,0,0,.261.151.545.545,0,0,0,.363-.124.858.858,0,0,0,.287-.333.646.646,0,0,0,.059-.391,1,1,0,0,0-.185-.375Zm.559.73a1.557,1.557,0,0,1-.2.484,1.272,1.272,0,0,1-.326.332.89.89,0,0,1-.618.2.645.645,0,0,1-.467-.283.673.673,0,0,1-.123-.315.685.685,0,0,1,.037-.318,1.025,1.025,0,0,1,.164-.284,3.181,3.181,0,0,1,.265-.265,3.787,3.787,0,0,0,.52-.545l-.061-.089a.455.455,0,0,0-.3-.222.7.7,0,0,0-.466.16.734.734,0,0,0-.293.335.626.626,0,0,0,.042.417l-.363.189a1,1,0,0,1-.1-.449.807.807,0,0,1,.157-.415,1.641,1.641,0,0,1,.4-.393,1.47,1.47,0,0,1,.458-.236.67.67,0,0,1,.342-.016.661.661,0,0,1,.269.155,2.426,2.426,0,0,1,.237.3l.318.449a5.968,5.968,0,0,0,.444.58.938.938,0,0,0,.254.182l-.353.251A.908.908,0,0,1,192.484,915.964Zm-2.3.976.343-.223a1.049,1.049,0,0,1,.17.719,1,1,0,0,1-.355.621,1.045,1.045,0,0,1-.822.28,1.323,1.323,0,0,1-.843-.51,1.7,1.7,0,0,1-.354-.61.909.909,0,0,1,.011-.6,1.181,1.181,0,0,1,.343-.494,1.01,1.01,0,0,1,.623-.274.921.921,0,0,1,.619.22l-.262.309a.667.667,0,0,0-.4-.147.528.528,0,0,0-.348.138.647.647,0,0,0-.238.5,1.065,1.065,0,0,0,.316.665,1.1,1.1,0,0,0,.61.417.616.616,0,0,0,.518-.154.581.581,0,0,0,.21-.38A.739.739,0,0,0,190.184,916.939Zm-1.347,2.449-.275-.238a.893.893,0,0,1-.192.858.993.993,0,0,1-.326.251.672.672,0,0,1-.339.074.782.782,0,0,1-.315-.105,2.153,2.153,0,0,1-.308-.234L185.939,919l.271-.314,1.022.887a2.386,2.386,0,0,0,.346.267.425.425,0,0,0,.3.043.508.508,0,0,0,.275-.175.677.677,0,0,0,.156-.326.536.536,0,0,0-.045-.345,1.308,1.308,0,0,0-.316-.364l-.988-.857.272-.314,1.847,1.6Zm-3.439,2.392a1.053,1.053,0,0,0,.686.244.6.6,0,0,0,.46-.247.592.592,0,0,0,.087-.506,1.021,1.021,0,0,0-.441-.548,1.139,1.139,0,0,0-.71-.268.6.6,0,0,0-.467.254.578.578,0,0,0-.085.508A1.11,1.11,0,0,0,185.4,921.781Zm1.752-.362-.253-.18a.762.762,0,0,1-.1.767.955.955,0,0,1-.442.345,1.061,1.061,0,0,1-.585.05,1.554,1.554,0,0,1-.618-.275,1.737,1.737,0,0,1-.469-.484.96.96,0,0,1,.027-1.1.81.81,0,0,1,.3-.267.826.826,0,0,1,.361-.088l-.988-.7.24-.339,2.748,1.958Zm-2.381,4-3-1.54,1.11-2.171.352.181-.906,1.772.922.473.848-1.659.352.181-.848,1.659,1.023.525.942-1.844.352.181Zm-1.291,3.778-3.243-.923.113-.4,1.167.332a.919.919,0,0,1-.125-.794.985.985,0,0,1,.231-.423.627.627,0,0,1,.362-.194,1.364,1.364,0,0,1,.55.067l1.488.424-.113.4-1.486-.423a.641.641,0,0,0-.471.005.5.5,0,0,0-.239.326.669.669,0,0,0,0,.358.542.542,0,0,0,.186.292,1.2,1.2,0,0,0,.414.189l1.283.365Zm-.463.333.37.009a1.537,1.537,0,0,1-.018.314.709.709,0,0,1-.132.332.4.4,0,0,1-.215.139,1.488,1.488,0,0,1-.491-.037l-1.386-.248-.054.3-.315-.056.054-.3-.6-.107-.172-.452.84.15.073-.409.315.056-.073.409,1.409.252a.719.719,0,0,0,.229.019.172.172,0,0,0,.092-.056.282.282,0,0,0,.054-.134A1.269,1.269,0,0,0,183.016,929.533Zm-1.171,1.842a3.045,3.045,0,0,1,.069.693,1.571,1.571,0,0,0,.036.371.364.364,0,0,0,.112.179.361.361,0,0,0,.475-.007.547.547,0,0,0,.155-.352.861.861,0,0,0-.05-.436.643.643,0,0,0-.247-.308.988.988,0,0,0-.4-.118Zm.915.083a1.55,1.55,0,0,1,.219.476,1.273,1.273,0,0,1,.023.465.892.892,0,0,1-.273.591.643.643,0,0,1-.524.152.67.67,0,0,1-.314-.122.679.679,0,0,1-.208-.243,1.014,1.014,0,0,1-.1-.314,3.155,3.155,0,0,1-.015-.374,3.772,3.772,0,0,0-.048-.753l-.106-.016a.455.455,0,0,0-.368.072.7.7,0,0,0-.2.452.738.738,0,0,0,.047.443.625.625,0,0,0,.335.251l-.107.4a1,1,0,0,1-.394-.234.807.807,0,0,1-.2-.4,1.65,1.65,0,0,1-.015-.563,1.473,1.473,0,0,1,.137-.5.582.582,0,0,1,.517-.356,2.42,2.42,0,0,1,.38.028l.545.069a5.916,5.916,0,0,0,.726.066.932.932,0,0,0,.305-.063l-.055.431A.919.919,0,0,1,182.761,931.459Zm.145,4.253-2.443.062-.009-.372.347-.009a.88.88,0,0,1-.418-.767,1.032,1.032,0,0,1,.069-.408.642.642,0,0,1,.2-.283.792.792,0,0,1,.3-.137,2.428,2.428,0,0,1,.4-.033l1.5-.038.011.415-1.484.037a1.109,1.109,0,0,0-.377.058.4.4,0,0,0-.2.176.551.551,0,0,0-.067.291.667.667,0,0,0,.179.452.825.825,0,0,0,.641.176l1.333-.034Zm.3,2.607-2.424.309-.047-.37.344-.044a.88.88,0,0,1-.494-.721,1.027,1.027,0,0,1,.027-.413.638.638,0,0,1,.171-.3.8.8,0,0,1,.286-.166,2.41,2.41,0,0,1,.4-.073l1.489-.19.052.412-1.473.188a1.109,1.109,0,0,0-.37.1.4.4,0,0,0-.177.2.552.552,0,0,0-.037.3.665.665,0,0,0,.224.431.824.824,0,0,0,.655.11l1.323-.169Zm-.948,1.37a3.046,3.046,0,0,1,.335.611,1.587,1.587,0,0,0,.178.327.362.362,0,0,0,.173.121.354.354,0,0,0,.2,0,.349.349,0,0,0,.229-.2.547.547,0,0,0,.005-.384.862.862,0,0,0-.217-.382.639.639,0,0,0-.348-.186.985.985,0,0,0-.415.048Zm.874-.283a1.551,1.551,0,0,1,.388.352,1.274,1.274,0,0,1,.2.419.893.893,0,0,1-.019.65.645.645,0,0,1-.422.346.675.675,0,0,1-.624-.131,1.021,1.021,0,0,1-.212-.25,3.163,3.163,0,0,1-.16-.339,3.8,3.8,0,0,0-.339-.674l-.1.027a.455.455,0,0,0-.31.211.7.7,0,0,0-.005.494.734.734,0,0,0,.217.389.624.624,0,0,0,.406.1l.056.406a1,1,0,0,1-.454-.06.807.807,0,0,1-.337-.287,1.644,1.644,0,0,1-.235-.512,1.476,1.476,0,0,1-.069-.512.677.677,0,0,1,.1-.328.663.663,0,0,1,.236-.2,2.435,2.435,0,0,1,.36-.124l.529-.15a5.933,5.933,0,0,0,.694-.225.941.941,0,0,0,.256-.178l.118.418A.926.926,0,0,1,183.131,939.405Zm.376,4.131a1.055,1.055,0,0,0,.58-.435.634.634,0,0,0-.35-.894,1.02,1.02,0,0,0-.71.073,1,1,0,0,0-.555.434.617.617,0,0,0-.035.53.6.6,0,0,0,.38.356A.99.99,0,0,0,183.507,943.536Zm1.488-.223-.094-.394a.383.383,0,0,0,.2-.231.7.7,0,0,0-.048-.435.742.742,0,0,0-.269-.372.563.563,0,0,0-.376-.08,2.656,2.656,0,0,0-.5.167.853.853,0,0,1,.546.513.926.926,0,0,1-.052.861,1.393,1.393,0,0,1-.708.577,1.622,1.622,0,0,1-.646.119,1.006,1.006,0,0,1-.559-.174.989.989,0,0,1-.357-.468.874.874,0,0,1,.067-.794l-.28.111-.14-.356,1.963-.776a1.99,1.99,0,0,1,.794-.189.848.848,0,0,1,.485.2,1.281,1.281,0,0,1,.356.526,1.168,1.168,0,0,1,.076.729A.66.66,0,0,1,185,943.313Zm-.812,1.566a3.05,3.05,0,0,1,.473.512,1.543,1.543,0,0,0,.252.273.365.365,0,0,0,.2.075.353.353,0,0,0,.2-.048.349.349,0,0,0,.175-.246.545.545,0,0,0-.088-.374.859.859,0,0,0-.3-.318.644.644,0,0,0-.383-.1.994.994,0,0,0-.39.148Zm.78-.487a1.548,1.548,0,0,1,.462.247,1.272,1.272,0,0,1,.3.357.894.894,0,0,1,.138.636.646.646,0,0,1-.326.438.672.672,0,0,1-.324.093.681.681,0,0,1-.313-.068,1.025,1.025,0,0,1-.266-.191,3.215,3.215,0,0,1-.238-.29,3.8,3.8,0,0,0-.492-.571l-.094.052a.455.455,0,0,0-.249.28.7.7,0,0,0,.114.48.732.732,0,0,0,.3.324.62.62,0,0,0,.418,0l.153.38a1,1,0,0,1-.455.052.8.8,0,0,1-.4-.2,1.656,1.656,0,0,1-.352-.44,1.482,1.482,0,0,1-.191-.48.68.68,0,0,1,.017-.343.665.665,0,0,1,.18-.254,2.421,2.421,0,0,1,.32-.208l.476-.274a5.993,5.993,0,0,0,.619-.387.94.94,0,0,0,.205-.235l.216.376A.918.918,0,0,1,184.963,944.392Zm1.709,3.88-.277-.3a.87.87,0,0,0,.348-.426.457.457,0,0,0-.09-.374.53.53,0,0,0-.23-.191.4.4,0,0,0-.268-.015,1.4,1.4,0,0,0-.37.208l-1.894,1.349-.259-.365,1.872-1.334a1.665,1.665,0,0,1,.593-.3.728.728,0,0,1,.476.059,1.061,1.061,0,0,1,.4.354.878.878,0,0,1,.186.7A1.056,1.056,0,0,1,186.672,948.273Zm2.228,1.078-1.768,1.69-.286-.3,1.769-1.69Zm-2.1,2.005-.341.326-.286-.3.341-.326Zm3.223-.9-1.686,1.772-.269-.257.258-.271a.993.993,0,0,1-.427.066.457.457,0,0,1-.25-.123.823.823,0,0,1-.218-.39l.37-.175a.612.612,0,0,0,.16.27.39.39,0,0,0,.232.109.441.441,0,0,0,.267-.058,1.582,1.582,0,0,0,.383-.3l.881-.926Zm2.03,1.649-2.083,2.656-.326-.256.75-.956a.913.913,0,0,1-.781-.185.978.978,0,0,1-.3-.374.629.629,0,0,1-.042-.409,1.365,1.365,0,0,1,.271-.484l.956-1.219.326.257-.955,1.217a.646.646,0,0,0-.174.438.5.5,0,0,0,.21.346.664.664,0,0,0,.329.138.539.539,0,0,0,.341-.062,1.189,1.189,0,0,0,.332-.312l.824-1.051Zm2.236,2.607-.382-.176A.94.94,0,0,0,194,954.1a.772.772,0,0,0-.162-.4,1.3,1.3,0,0,0-.4-.346,1.236,1.236,0,0,0-.429-.159.625.625,0,0,0-.356.037.49.49,0,0,0-.227.2.443.443,0,0,0-.058.286.693.693,0,0,0,.164.324,6.222,6.222,0,0,0,.439.442,3.063,3.063,0,0,1,.459.508.915.915,0,0,1,.154.452.769.769,0,0,1-.106.424.856.856,0,0,1-.364.342.892.892,0,0,1-.535.082,1.594,1.594,0,0,1-.594-.209,1.679,1.679,0,0,1-.512-.435.952.952,0,0,1-.2-.529,1.025,1.025,0,0,1,.121-.544l.388.186a.689.689,0,0,0-.038.535.909.909,0,0,0,.428.436.941.941,0,0,0,.586.166.445.445,0,0,0,.339-.218.385.385,0,0,0,.035-.325,1.777,1.777,0,0,0-.463-.544,4.487,4.487,0,0,1-.54-.56,1.02,1.02,0,0,1-.205-.515.832.832,0,0,1,.117-.485.911.911,0,0,1,.386-.363,1.014,1.014,0,0,1,.568-.1,1.541,1.541,0,0,1,.628.21,1.94,1.94,0,0,1,.6.5,1.069,1.069,0,0,1,.22.59A1.137,1.137,0,0,1,194.29,954.709Z" transform="translate(-158.306 -884.302)" fill="#021a60"></path>
      <path id="Path_68" data-name="Path 68" d="M298.95,993.371l-.217-.3a1.534,1.534,0,0,1,.26-.175.7.7,0,0,1,.344-.1.4.4,0,0,1,.24.087,1.488,1.488,0,0,1,.268.414l.642,1.255.273-.14.146.286-.272.14.276.539-.255.411-.389-.761-.369.189-.146-.285.369-.189-.653-1.277a.728.728,0,0,0-.124-.193.173.173,0,0,0-.1-.04.281.281,0,0,0-.139.038,1.3,1.3,0,0,0-.153.1m3.17-1.448-.309.277a.573.573,0,0,0-.366-.214.672.672,0,0,0-.442.128.652.652,0,0,0-.295.328.348.348,0,0,0,.031.3.25.25,0,0,0,.223.119,1.846,1.846,0,0,0,.432-.111,3.873,3.873,0,0,1,.638-.174.6.6,0,0,1,.6.278.63.63,0,0,1,.1.3.672.672,0,0,1-.047.3.868.868,0,0,1-.156.243,1.244,1.244,0,0,1-.274.235,1.391,1.391,0,0,1-.469.2.683.683,0,0,1-.391-.016.891.891,0,0,1-.325-.243l.31-.267a.449.449,0,0,0,.3.165.573.573,0,0,0,.371-.112.676.676,0,0,0,.291-.3.276.276,0,0,0-.017-.251.227.227,0,0,0-.121-.1.368.368,0,0,0-.193-.007c-.043.009-.164.045-.364.108a5.109,5.109,0,0,1-.619.169.622.622,0,0,1-.347-.035.6.6,0,0,1-.275-.245.69.69,0,0,1-.108-.393.79.79,0,0,1,.141-.427,1.272,1.272,0,0,1,.38-.363,1.15,1.15,0,0,1,.718-.226A.917.917,0,0,1,302.12,991.923Zm.283-1.145.225.286a.892.892,0,0,1,.351-.806.988.988,0,0,1,.368-.184.669.669,0,0,1,.347-.008.788.788,0,0,1,.29.163,2.166,2.166,0,0,1,.258.289l.934,1.191-.326.257-.836-1.065a2.451,2.451,0,0,0-.29-.328.427.427,0,0,0-.288-.1.508.508,0,0,0-.3.12.677.677,0,0,0-.215.29.54.54,0,0,0-.021.347,1.316,1.316,0,0,0,.241.417l.807,1.03-.326.256-1.51-1.925Zm2.373-2.1,1.686,1.772-.269.257-.258-.271a1,1,0,0,1,.046.431.459.459,0,0,1-.135.244.824.824,0,0,1-.4.2l-.157-.379a.61.61,0,0,0,.277-.147.393.393,0,0,0,.119-.227.444.444,0,0,0-.045-.27,1.594,1.594,0,0,0-.283-.4l-.881-.926Zm1.182-1.344,2.249,1.952.728-.842.3.26-1.748,2.022-.3-.26.728-.841-2.249-1.953Zm3.714-2.974-.678,1.182a.822.822,0,0,0,.478.1.632.632,0,0,0,.463-.325.66.66,0,0,0,.073-.511A.764.764,0,0,0,309.673,984.359Zm-1.252.847-.263.344a1.04,1.04,0,0,1-.316-.614,1.129,1.129,0,0,1,.169-.709,1.113,1.113,0,0,1,.708-.572,1.284,1.284,0,0,1,.957.189,1.348,1.348,0,0,1,.67.751,1.075,1.075,0,0,1-.115.884,1.039,1.039,0,0,1-.686.527,1.322,1.322,0,0,1-.967-.2l-.094-.057.907-1.581a.935.935,0,0,0-.647-.109.675.675,0,0,0-.439.336.631.631,0,0,0-.089.4A.8.8,0,0,0,308.421,985.205Zm.569-2.814,3.072,1.392-.171.378-3.072-1.391Zm1.974-1.689a1.267,1.267,0,0,0-.638-.09.592.592,0,0,0-.4.919,1.069,1.069,0,0,0,.6.413,1.086,1.086,0,0,0,.728.047.578.578,0,0,0,.362-.362.6.6,0,0,0-.073-.52A1.03,1.03,0,0,0,310.964,980.7Zm-1.176-.394.124-.367,3.194,1.083-.133.393-1.14-.386a.824.824,0,0,1,.1.74,1.032,1.032,0,0,1-.222.376.879.879,0,0,1-.348.232,1.234,1.234,0,0,1-.44.066,1.618,1.618,0,0,1-.493-.089,1.392,1.392,0,0,1-.818-.605.974.974,0,0,1-.086-.817.779.779,0,0,1,.558-.528Zm1.593-1.107a3.078,3.078,0,0,1,0-.7,1.568,1.568,0,0,0,0-.372.367.367,0,0,0-.093-.19.351.351,0,0,0-.178-.1.347.347,0,0,0-.295.061.544.544,0,0,0-.189.334.858.858,0,0,0,.006.44.642.642,0,0,0,.215.331.992.992,0,0,0,.386.158Zm-.9-.175a1.55,1.55,0,0,1-.17-.5,1.28,1.28,0,0,1,.024-.465.893.893,0,0,1,.331-.56.644.644,0,0,1,.536-.1.671.671,0,0,1,.3.154.684.684,0,0,1,.183.263,1.012,1.012,0,0,1,.065.322,3.132,3.132,0,0,1-.023.374,3.8,3.8,0,0,0-.028.754l.1.027a.453.453,0,0,0,.373-.035.7.7,0,0,0,.243-.43.737.737,0,0,0,0-.445.623.623,0,0,0-.308-.283l.146-.383a1.006,1.006,0,0,1,.369.272.809.809,0,0,1,.157.414,1.652,1.652,0,0,1-.041.562,1.475,1.475,0,0,1-.187.482.581.581,0,0,1-.55.3,2.38,2.38,0,0,1-.375-.066l-.535-.124a5.914,5.914,0,0,0-.716-.139.942.942,0,0,0-.31.032l.1-.423A.923.923,0,0,1,310.479,979.027Zm.474-1.989-.37.01a1.557,1.557,0,0,1,0-.314.707.707,0,0,1,.115-.338.406.406,0,0,1,.208-.149,1.5,1.5,0,0,1,.492.012l1.4.178.039-.3.318.041-.039.3.6.077.195.443-.846-.108-.052.412-.318-.04.052-.412-1.42-.181a.716.716,0,0,0-.229-.007.173.173,0,0,0-.089.06.28.28,0,0,0-.047.136A1.333,1.333,0,0,0,310.953,977.038Zm-.161-1.984,2.437.185-.031.414-2.437-.185Zm2.892.22.469.036-.031.414-.469-.036Zm-2.836-1.795,2.443.062-.009.373-.374-.009a1,1,0,0,1,.336.273.461.461,0,0,1,.077.269.826.826,0,0,1-.142.424l-.378-.158a.611.611,0,0,0,.093-.3.394.394,0,0,0-.075-.245.443.443,0,0,0-.222-.159,1.594,1.594,0,0,0-.481-.081l-1.277-.032Zm1.183-1.145a3.061,3.061,0,0,1-.206-.666,1.574,1.574,0,0,0-.11-.356.365.365,0,0,0-.145-.153.36.36,0,0,0-.464.1.547.547,0,0,0-.082.375.861.861,0,0,0,.136.418.642.642,0,0,0,.3.252.984.984,0,0,0,.416.035Zm-.913.1a1.557,1.557,0,0,1-.31-.423,1.279,1.279,0,0,1-.116-.451.893.893,0,0,1,.149-.634.645.645,0,0,1,.483-.254.668.668,0,0,1,.332.057.683.683,0,0,1,.253.2,1.012,1.012,0,0,1,.158.288,3.078,3.078,0,0,1,.09.364,3.781,3.781,0,0,0,.2.728l.107-.006a.453.453,0,0,0,.346-.145.7.7,0,0,0,.1-.483.733.733,0,0,0-.135-.424.622.622,0,0,0-.378-.179l.025-.409a1,1,0,0,1,.433.15.807.807,0,0,1,.273.348,1.645,1.645,0,0,1,.128.549,1.484,1.484,0,0,1-.035.515.677.677,0,0,1-.163.3.661.661,0,0,1-.272.151,2.379,2.379,0,0,1-.378.049l-.548.042a5.923,5.923,0,0,0-.725.081.935.935,0,0,0-.287.123l-.033-.433A.92.92,0,0,1,311.119,972.436Zm-.886-4.156,3.319-.594.073.409-1.195.214a.918.918,0,0,1,.46.659.98.98,0,0,1-.023.482.628.628,0,0,1-.24.333,1.365,1.365,0,0,1-.523.181l-1.523.272-.073-.409,1.521-.272a.644.644,0,0,0,.421-.211.5.5,0,0,0,.073-.4.666.666,0,0,0-.154-.322.541.541,0,0,0-.3-.181,1.192,1.192,0,0,0-.455.012l-1.313.235Zm.827-1.287.036.461a1.5,1.5,0,0,1-.954-.209,1.387,1.387,0,0,1-.559-.752,1.6,1.6,0,0,1-.073-.912,1.385,1.385,0,0,1,.442-.7,2.3,2.3,0,0,1,.8-.459,1.982,1.982,0,0,1,.934-.1,1.38,1.38,0,0,1,.747.352,1.669,1.669,0,0,1,.454.71,1.383,1.383,0,0,1,.029.889,1.337,1.337,0,0,1-.532.688l-.238-.382a1.043,1.043,0,0,0,.4-.494.906.906,0,0,0-.021-.586,1.089,1.089,0,0,0-.384-.556.981.981,0,0,0-.591-.187,2.007,2.007,0,0,0-.647.107,2.058,2.058,0,0,0-.671.359.934.934,0,0,0-.33.523,1.088,1.088,0,0,0,.033.592.957.957,0,0,0,.407.531A1.106,1.106,0,0,0,311.06,966.993Z" transform="translate(-243.063 -923.562)" fill="#021a60"></path>
      <g id="Group_14" data-name="Group 14" transform="translate(12.791 81.467)">
        <path id="Path_69" data-name="Path 69" d="M165.037,1114.768s1.2-.162.161-1.156c0,0-7.985-5.645-12.929-6.8a48.606,48.606,0,0,1,2.781,5.883s-4.856.8-6.357,2.123c2.562.355,7.183,2.553,9.447,4.2Z" transform="translate(-148.694 -1106.816)" fill="#ffca18" fill-rule="evenodd"></path>
        <g id="Group_13" data-name="Group 13" clip-path="url(#clip-path-2)">
          <rect id="Rectangle_10" data-name="Rectangle 10" width="19.514" height="15.269" transform="matrix(0.982, -0.187, 0.187, 0.982, -2.24, 0.426)" fill="#ffca18"></rect>
        </g>
      </g>
      <g id="Group_16" data-name="Group 16" transform="translate(61.901 81.467)">
        <path id="Path_71" data-name="Path 71" d="M321.119,1114.768s-1.2-.162-.161-1.156c0,0,7.985-5.645,12.929-6.8a48.606,48.606,0,0,0-2.781,5.883s4.856.8,6.357,2.123c-2.562.355-7.183,2.553-9.447,4.2Z" transform="translate(-320.534 -1106.816)" fill="#ffca18" fill-rule="evenodd"></path>
        <g id="Group_15" data-name="Group 15" clip-path="url(#clip-path-3)">
          <rect id="Rectangle_11" data-name="Rectangle 11" width="19.514" height="15.269" transform="matrix(0.982, -0.187, 0.187, 0.982, -2.855, 0.426)" fill="#ffca18"></rect>
        </g>
      </g>
      <path id="Path_73" data-name="Path 73" d="M179.01,1127.5l-5.286,9.324s-6.167-3.421-5.946-4.745c0,0,2.7-1.544,5.4-7.006,0,0,.11-.827,2.367.717,0,0,3.028,2.1,3.469,1.71" transform="translate(-149.528 -1038.228)" fill="#011b60" fill-rule="evenodd"></path>
      <path id="Path_74" data-name="Path 74" d="M320.936,1127.305l5.286,9.324s6.166-3.421,5.946-4.745c0,0-2.7-1.545-5.4-7.007,0,0-.11-.828-2.368.717,0,0-3.028,2.1-3.469,1.71" transform="translate(-258.92 -1038.09)" fill="#011b60" fill-rule="evenodd"></path>
      <g id="Group_19" data-name="Group 19" transform="translate(18.515 87.092)">
        <g id="Group_18" data-name="Group 18">
          <path id="Path_75" data-name="Path 75" d="M174.31,1126.5s-.626.482,1.692,1.919c0,0,6.751,4.921,13,5.879s12.981,1.914,24.1-3.883c2.244-1.291,3.637-1.985,4.535-3.546a26.388,26.388,0,0,0,5.334,7.02s.783.239-2.969,2.584c0,0-8.844,7.364-25.033,7.428,0,0-14.4-.319-25.047-8.876-1.407-1.037-1.287-1.173-1.062-1.354a15.723,15.723,0,0,0,1.852-1.662c.931-1.312,2.075-2.773,2.869-4.132.294-.5.516-.975.729-1.379" transform="translate(-168.723 -1126.499)" fill="#ffca18" fill-rule="evenodd"></path>
          <g id="Group_17" data-name="Group 17" clip-path="url(#clip-path-4)">
            <rect id="Rectangle_12" data-name="Rectangle 12" width="57.517" height="27.412" transform="translate(-3.4 0.607) rotate(-10.763)" fill="#ffca18"></rect>
          </g>
        </g>
      </g>
      <path id="Path_77" data-name="Path 77" d="M233.477,1152.445a.934.934,0,0,0,.3.372.4.4,0,0,0,.417.015.39.39,0,0,0,.2-.287.73.73,0,0,0-.108-.476.8.8,0,0,0-.348-.385.394.394,0,0,0-.355.016.4.4,0,0,0-.208.285.692.692,0,0,0,.1.461m1.751.251-.435.234-.14-.262a.827.827,0,0,1-.135.368.738.738,0,0,1-.258.238.77.77,0,0,1-.66.035,1.146,1.146,0,0,1-.589-.574,1.134,1.134,0,0,1-.156-.8.791.791,0,0,1,.413-.526.757.757,0,0,1,.65-.029l-.475-.888.47-.252Zm-3.007.228a.516.516,0,0,0-.259-.269.363.363,0,0,0-.3.009.371.371,0,0,0-.206.239.5.5,0,0,0,.047.362Zm.2.5.52-.147a.878.878,0,0,1-.1.543.957.957,0,0,1-.435.376.9.9,0,0,1-.851.021,1.161,1.161,0,0,1-.478-.546,1.121,1.121,0,0,1-.1-.825.861.861,0,0,1,.478-.542.893.893,0,0,1,.769-.035,1.321,1.321,0,0,1,.615.72l-1.207.572a.541.541,0,0,0,.275.279.4.4,0,0,0,.334-.011.325.325,0,0,0,.161-.152A.423.423,0,0,0,232.424,1153.427Zm-2.113.372a.518.518,0,0,0-.244-.283.364.364,0,0,0-.3-.008.372.372,0,0,0-.218.228.5.5,0,0,0,.028.364Zm.175.514.528-.119a.879.879,0,0,1-.131.537.957.957,0,0,1-.455.351.9.9,0,0,1-.851-.025,1.158,1.158,0,0,1-.448-.571,1.122,1.122,0,0,1-.055-.829.861.861,0,0,1,.506-.515.892.892,0,0,1,.77.007,1.321,1.321,0,0,1,.575.752l-1.236.505a.541.541,0,0,0,.259.294.4.4,0,0,0,.333.007.325.325,0,0,0,.169-.143A.425.425,0,0,0,230.487,1154.313Zm-3.7-.39.6,1.748.4-.136a1.549,1.549,0,0,0,.312-.135.51.51,0,0,0,.176-.183.585.585,0,0,0,.051-.3,1.809,1.809,0,0,0-.111-.5,1.662,1.662,0,0,0-.215-.451.64.64,0,0,0-.238-.2.533.533,0,0,0-.288-.039,2.5,2.5,0,0,0-.444.124Zm-.686-.263.97-.333a2,2,0,0,1,.518-.121.924.924,0,0,1,.48.107,1.21,1.21,0,0,1,.4.341,2.08,2.08,0,0,1,.3.594,1.843,1.843,0,0,1,.111.59,1.225,1.225,0,0,1-.122.563.984.984,0,0,1-.3.339,1.7,1.7,0,0,1-.451.217l-1,.343Zm-1.642,2.6-.142-.515,1.012-.281.142.515Zm-2.888.3a.944.944,0,0,0,.169.447.4.4,0,0,0,.392.144.392.392,0,0,0,.28-.21.732.732,0,0,0,.045-.487.8.8,0,0,0-.211-.474.4.4,0,0,0-.342-.1.4.4,0,0,0-.286.205A.694.694,0,0,0,221.574,1156.56Zm1.586.785-.486.087-.052-.292a.83.83,0,0,1-.243.308.737.737,0,0,1-.319.145.769.769,0,0,1-.638-.172,1.147,1.147,0,0,1-.382-.729,1.131,1.131,0,0,1,.1-.814.789.789,0,0,1,.555-.37.756.756,0,0,1,.626.175l-.175-.992.525-.094Zm-2.818.469-.527.076-.288-2,.489-.071.041.284a.843.843,0,0,1,.189-.3.431.431,0,0,1,.22-.1.683.683,0,0,1,.363.049l-.1.485a.462.462,0,0,0-.261-.051.3.3,0,0,0-.18.088.424.424,0,0,0-.09.239,3.2,3.2,0,0,0,.052.677Zm-2.526-.758a.674.674,0,0,0,.177.449.463.463,0,0,0,.7-.054.684.684,0,0,0,.105-.475.67.67,0,0,0-.176-.445.445.445,0,0,0-.361-.133.45.45,0,0,0-.338.187A.675.675,0,0,0,217.815,1157.055Zm-.549.014a1.094,1.094,0,0,1,.091-.525.9.9,0,0,1,.341-.409,1.1,1.1,0,0,1,.525-.173,1,1,0,0,1,.771.24,1.033,1.033,0,0,1,.349.73,1.049,1.049,0,0,1-.236.782,1,1,0,0,1-.719.358,1.169,1.169,0,0,1-.537-.085.864.864,0,0,1-.41-.339A1.229,1.229,0,0,1,217.266,1157.069Zm-3.012,1.081-.68-2.786.58-.005.432,1.914.491-1.922.67-.006.5,1.946.407-1.954.566-.005-.646,2.8-.6.005-.568-2.083-.535,2.092Zm-2.749-.975.049-.532,1.046.1-.049.532Zm-4.134-1.994.481.095-.053.271a.793.793,0,0,1,.678-.192.679.679,0,0,1,.314.143.613.613,0,0,1,.183.282.932.932,0,0,1,.328-.182.7.7,0,0,1,.338-.015.732.732,0,0,1,.352.161.551.551,0,0,1,.174.3,1.14,1.14,0,0,1-.027.421l-.248,1.268-.523-.1.222-1.133a.854.854,0,0,0,.021-.391.254.254,0,0,0-.2-.156.369.369,0,0,0-.221.026.388.388,0,0,0-.179.17,1.454,1.454,0,0,0-.123.4l-.187.952-.523-.1.213-1.086a1.533,1.533,0,0,0,.045-.379.242.242,0,0,0-.062-.143.278.278,0,0,0-.151-.072.388.388,0,0,0-.23.022.365.365,0,0,0-.176.161,1.421,1.421,0,0,0-.122.4l-.189.963-.523-.1Zm-1.981.516a.675.675,0,0,0,.019.482.453.453,0,0,0,.3.245.445.445,0,0,0,.379-.065.684.684,0,0,0,.256-.413.67.67,0,0,0-.02-.479.446.446,0,0,0-.3-.245.451.451,0,0,0-.381.065A.674.674,0,0,0,205.391,1155.7Zm-.523-.169a1.1,1.1,0,0,1,.259-.466.9.9,0,0,1,.457-.273,1.1,1.1,0,0,1,.552.01,1.007,1.007,0,0,1,.649.481,1.035,1.035,0,0,1,.09.8,1.048,1.048,0,0,1-.48.661,1,1,0,0,1-.8.1,1.169,1.169,0,0,1-.479-.258.862.862,0,0,1-.275-.455A1.229,1.229,0,0,1,204.868,1155.528Zm-1.666-.567a.937.937,0,0,0-.064.474.4.4,0,0,0,.275.314.391.391,0,0,0,.347-.05.731.731,0,0,0,.271-.406.8.8,0,0,0,.041-.517.394.394,0,0,0-.255-.248.4.4,0,0,0-.349.043A.691.691,0,0,0,203.2,1154.962Zm1.018,1.449-.469-.157.094-.281a.829.829,0,0,1-.36.154.736.736,0,0,1-.35-.025.773.773,0,0,1-.478-.457,1.147,1.147,0,0,1,.013-.823,1.132,1.132,0,0,1,.478-.666.788.788,0,0,1,.664-.06.759.759,0,0,1,.467.454l.319-.955.506.169Zm-3.742-1.964.529.126a.385.385,0,0,0,.041.27.465.465,0,0,0,.241.185.53.53,0,0,0,.318.047.171.171,0,0,0,.119-.107.141.141,0,0,0,0-.108.435.435,0,0,0-.139-.133,2.885,2.885,0,0,1-.662-.549.523.523,0,0,1-.052-.513.562.562,0,0,1,.358-.333.963.963,0,0,1,.662.074,1.119,1.119,0,0,1,.52.357.7.7,0,0,1,.107.477l-.5-.1a.316.316,0,0,0-.046-.215.449.449,0,0,0-.216-.156.584.584,0,0,0-.3-.059.126.126,0,0,0-.1.078.119.119,0,0,0,.013.111,2.03,2.03,0,0,0,.408.328,1.489,1.489,0,0,1,.465.445.493.493,0,0,1,.007.432.61.61,0,0,1-.394.356,1.025,1.025,0,0,1-.712-.072,1.138,1.138,0,0,1-.544-.4A.771.771,0,0,1,200.479,1154.447Zm-1.033.18.811-1.853.488.215-.811,1.853Zm.92-2.1.2-.453.488.214-.2.453Zm-3.871.734.6-2.8.524.248-.444,1.911,1.278-1.516.606.288-.393,1.971,1.216-1.581.512.243-1.8,2.236-.545-.258.395-2.122-1.391,1.649Z" transform="translate(-170.043 -1056.36)" fill="#001a60"></path>
      <g id="Group_20" data-name="Group 20" transform="translate(36.728 40.589)">
        <path id="Path_78" data-name="Path 78" d="M253.483,1004.487a.271.271,0,0,1,.191.072.962.962,0,0,0,.575.287.94.94,0,0,0,.694-.359.258.258,0,0,1,.168-.072l3.712.335-.455-.814-1.676-.215c-1.748-.263-2.275.575-2.275.6a.234.234,0,0,1-.215.1.18.18,0,0,1-.168-.12.023.023,0,0,0-.024-.024c-.5-.982-2.921-.5-3.831-.216h-.048l-.383.67Z" transform="translate(-244.804 -992.269)" fill="#ffca18" fill-rule="evenodd"></path>
        <path id="Path_79" data-name="Path 79" d="M253.769,988.073a2.484,2.484,0,0,1,1.556.407l.048-5.2a2.011,2.011,0,0,0-1.94-.886h-.12a7.378,7.378,0,0,0-1.724.288l.048,5.7A8.6,8.6,0,0,1,253.769,988.073Z" transform="translate(-246.121 -977.077)" fill="#ffca18" fill-rule="evenodd"></path>
        <path id="Path_80" data-name="Path 80" d="M268.433,988.3l1.461.168-.048-5.6c-.694-.144-3.233-.646-3.688.646a.023.023,0,0,1-.024.024l-.048,5.172A3.033,3.033,0,0,1,268.433,988.3Z" transform="translate(-256.474 -977.253)" fill="#ffca18" fill-rule="evenodd"></path>
        <path id="Path_81" data-name="Path 81" d="M281.132,990.983V985.93l-.383-.766.048,5.22Z" transform="translate(-266.946 -979.052)" fill="#ffca18" fill-rule="evenodd"></path>
        <path id="Path_82" data-name="Path 82" d="M241.9,963.778a9.464,9.464,0,1,0,9.445,9.464A9.455,9.455,0,0,0,241.9,963.778Zm5.818,13.679a.227.227,0,0,1-.167.048l-4.526-.431a1.84,1.84,0,0,1-2.083,0l-4.693.455a.145.145,0,0,1-.144-.072.17.17,0,0,1-.072-.144l.024-7.256a.217.217,0,0,1,.072-.167.175.175,0,0,1,.143-.048h.79l.335-.742.12.048c0-.072.048-.1.119-.12a6.763,6.763,0,0,1,2.012-.335.3.3,0,0,1,.144-.024,2.653,2.653,0,0,1,2.131.862c.958-1.365,4.047-.551,4.166-.5.048,0,.1.048.12.072l.1.12.1-.048.311.623.838.048a.211.211,0,0,1,.215.192l.024,7.255A.217.217,0,0,1,247.715,977.457Z" transform="translate(-232.452 -963.778)" fill="#ffca18" fill-rule="evenodd"></path>
        <path id="Path_83" data-name="Path 83" d="M256.859,986.337l.144.287a.181.181,0,0,1,.024.1v5.891a.23.23,0,0,1-.168.215h-.048c-.024,0-.072-.024-.1-.024v.024l-3.927-.359a1.3,1.3,0,0,1-.91.431h-.048a1.437,1.437,0,0,1-.814-.359l-3.951.264v-.048a.088.088,0,0,1-.072.024c-.024,0-.024,0-.048-.024a.2.2,0,0,1-.167-.191l-.048-5.891a.18.18,0,0,1,.024-.1l.1-.192h-.407l-.048,6.8,4.526-.431a.34.34,0,0,1,.144.048,1.509,1.509,0,0,0,1.772,0,.183.183,0,0,1,.12-.048l4.358.407-.024-6.8Z" transform="translate(-242.41 -979.89)" fill="#ffca18" fill-rule="evenodd"></path>
        <path id="Path_84" data-name="Path 84" d="M249.388,990.516l.024.024-.048-5.292-.287.694.048,5.053Z" transform="translate(-244.325 -979.112)" fill="#ffca18" fill-rule="evenodd"></path>
      </g>
    </g>
    <g id="Group_341" data-name="Group 341" transform="translate(-995.774 -2939.315)">
      <g id="Group_12-2" data-name="Group 12" transform="translate(0 0)">
        <g id="Group_11-2" data-name="Group 11" clip-path="url(#clip-path)">
          <path id="Path_64-2" data-name="Path 64" d="M152.695,763.97,47.73,782.783,66.461,887.29l104.965-18.813Zm-25.463,71.086a3.608,3.608,0,0,0-2.368.566,1.69,1.69,0,0,0-.631,2.049,4.3,4.3,0,0,0,1.2,1.741c1.467,1.51,1.224,2.107-.368,3.589-.508.474-.967.968-1.451,1.45-1.044,1.039-2.087,2.66-3.514,1.971a8.807,8.807,0,0,1-1.634-1.3c-1.082-.94-3.092-1.077-3.591,1.018-.215.906.1,1.774-.337,2.594a2.009,2.009,0,0,1-.74.743,5.08,5.08,0,0,1-1.039.386c-.854.061-3.273.01-4.381,0a2.219,2.219,0,0,1-2.427-1.93,5.961,5.961,0,0,0-.45-2.49,1.737,1.737,0,0,0-1.9-.96,2.986,2.986,0,0,0-1.877,1.062,2.942,2.942,0,0,1-1.854,1.075c-1.158-.029-2.468-1.718-3.274-2.552-.493-.51-.941-.915-1.451-1.483-1.582-1.762-.361-2.573.6-3.737a2.407,2.407,0,0,0,.7-1.938q-.254-.556-.462-1.137c-.115-.077-.237-.182-.346-.246-1.487-.877-2.921-.055-3.982-1.091a2.662,2.662,0,0,1-.715-2.213q0-1.451,0-2.9a3.181,3.181,0,0,1,.566-2.363c1.211-1.47,2.768-.03,4.446-1.418a2.138,2.138,0,0,0,.45-2.231c-.354-1.3-2.5-2.106-1.8-3.785a7.147,7.147,0,0,1,1.3-1.638,27.515,27.515,0,0,1,2.989-2.84c1.726-1.172,2.527.728,3.708,1.378a2.448,2.448,0,0,0,2.339.044c1.748-1.075.143-4.218,2.419-4.867a24.335,24.335,0,0,1,4.2-.148,3.765,3.765,0,0,1,2.441.493c1.421,1.084.054,3.162,1.516,4.354a2.184,2.184,0,0,0,2.266.228c1.481-.623,2.3-2.512,3.782-1.62a29.835,29.835,0,0,1,3.009,2.824c1.133,1.167,2.473,2.135,1.227,3.568a9.142,9.142,0,0,0-1.357,1.58,1.965,1.965,0,0,0-.1,2.227,2.743,2.743,0,0,0,1.869,1.071c.888.084,1.887-.085,2.526.4a2.606,2.606,0,0,1,.806,2.1c.011.966,0,1.935,0,2.9C129.543,833.591,129.637,834.908,127.232,835.056Z" transform="translate(-63.793 -780.483)" fill="#ffca18"></path>
        </g>
      </g>
      <path id="Path_66-2" data-name="Path 66" d="M193.145,895.7A28.919,28.919,0,1,0,222.1,924.622,28.936,28.936,0,0,0,193.145,895.7Zm17.265,33.439a3.608,3.608,0,0,0-2.368.566,1.69,1.69,0,0,0-.631,2.049,4.3,4.3,0,0,0,1.2,1.741c1.467,1.51,1.224,2.107-.368,3.589-.508.474-.967.968-1.451,1.45-1.044,1.039-2.087,2.66-3.514,1.971a8.808,8.808,0,0,1-1.634-1.3c-1.082-.94-3.092-1.077-3.591,1.018-.215.906.1,1.774-.337,2.594a2.009,2.009,0,0,1-.74.743,5.08,5.08,0,0,1-1.039.386c-.854.061-3.273.01-4.381,0a2.219,2.219,0,0,1-2.427-1.93,5.961,5.961,0,0,0-.45-2.49,1.737,1.737,0,0,0-1.9-.96,2.986,2.986,0,0,0-1.877,1.062,2.942,2.942,0,0,1-1.854,1.075c-1.158-.029-2.468-1.718-3.274-2.552-.493-.51-.941-.915-1.451-1.483-1.582-1.762-.361-2.573.6-3.737a2.407,2.407,0,0,0,.7-1.938q-.254-.556-.462-1.137c-.115-.077-.237-.182-.346-.246-1.487-.877-2.921-.055-3.982-1.091a2.662,2.662,0,0,1-.715-2.213q0-1.451,0-2.9a3.181,3.181,0,0,1,.566-2.363c1.211-1.47,2.768-.03,4.446-1.418a2.138,2.138,0,0,0,.45-2.231c-.354-1.3-2.5-2.106-1.8-3.785a7.148,7.148,0,0,1,1.3-1.638,27.515,27.515,0,0,1,2.989-2.84c1.726-1.172,2.527.728,3.708,1.378a2.448,2.448,0,0,0,2.339.044c1.748-1.075.143-4.218,2.419-4.867a24.335,24.335,0,0,1,4.2-.148,3.765,3.765,0,0,1,2.441.493c1.421,1.084.054,3.162,1.516,4.354a2.184,2.184,0,0,0,2.266.228c1.481-.623,2.3-2.512,3.782-1.62a29.834,29.834,0,0,1,3.009,2.824c1.133,1.167,2.473,2.135,1.227,3.568a9.142,9.142,0,0,0-1.357,1.58,1.965,1.965,0,0,0-.1,2.227,2.743,2.743,0,0,0,1.869,1.071c.888.084,1.887-.085,2.526.4a2.606,2.606,0,0,1,.806,2.1c.011.966,0,1.935,0,2.9C212.722,927.677,212.816,928.994,210.411,929.142Z" transform="translate(-146.971 -874.569)" fill="#ffca18"></path>
      <path id="Path_67-2" data-name="Path 67" d="M223.692,921.955a1.052,1.052,0,0,0-.508.522.6.6,0,0,0,.032.522.587.587,0,0,0,.422.291,1.017,1.017,0,0,0,.68-.172,1.14,1.14,0,0,0,.54-.535.6.6,0,0,0-.035-.531.576.576,0,0,0-.425-.29,1.1,1.1,0,0,0-.707.193m-.4,1.746.269-.155a.759.759,0,0,1-.654-.412.952.952,0,0,1-.128-.546,1.065,1.065,0,0,1,.2-.554,1.553,1.553,0,0,1,.508-.448,1.737,1.737,0,0,1,.635-.225.958.958,0,0,1,.577.09.971.971,0,0,1,.408.393.814.814,0,0,1,.115.388.825.825,0,0,1-.071.365l1.051-.606.207.36-2.923,1.684Zm-2.393-3.447,1.921-1.513.23.293-.273.215a.877.877,0,0,1,.793.365,1.021,1.021,0,0,1,.188.369.64.64,0,0,1,.008.347.8.8,0,0,1-.16.29,2.411,2.411,0,0,1-.3.267l-1.18.929-.256-.326,1.167-.919a1.114,1.114,0,0,0,.268-.272.4.4,0,0,0,.052-.259.551.551,0,0,0-.119-.273.669.669,0,0,0-.413-.255.826.826,0,0,0-.619.243l-1.048.825Zm.164-1.619a3.04,3.04,0,0,1-.58-.384,1.585,1.585,0,0,0-.31-.206.365.365,0,0,0-.209-.026.361.361,0,0,0-.294.374.548.548,0,0,0,.174.343.856.856,0,0,0,.37.237.64.64,0,0,0,.395,0,.987.987,0,0,0,.344-.237Zm-.642.659a1.552,1.552,0,0,1-.507-.131,1.275,1.275,0,0,1-.374-.276.894.894,0,0,1-.286-.585.647.647,0,0,1,.213-.5.671.671,0,0,1,.294-.167.681.681,0,0,1,.319-.009,1.015,1.015,0,0,1,.3.123,3.038,3.038,0,0,1,.3.225,3.805,3.805,0,0,0,.613.438l.079-.072a.457.457,0,0,0,.176-.331.7.7,0,0,0-.225-.439.736.736,0,0,0-.373-.243.624.624,0,0,0-.406.1l-.239-.333a1.006,1.006,0,0,1,.43-.159.8.8,0,0,1,.432.1,1.642,1.642,0,0,1,.446.343,1.481,1.481,0,0,1,.3.421.584.584,0,0,1-.051.626,2.385,2.385,0,0,1-.261.278l-.4.38a6,6,0,0,0-.51.523.941.941,0,0,0-.143.277l-.3-.314A.922.922,0,0,1,220.418,919.293Zm-4.458-3.32,1.954-2.753.338.24-.7.991a.913.913,0,0,1,.789.147.978.978,0,0,1,.321.359.629.629,0,0,1,.061.406,1.375,1.375,0,0,1-.247.5l-.9,1.263-.338-.241.9-1.262a.644.644,0,0,0,.153-.446.5.5,0,0,0-.226-.335.664.664,0,0,0-.336-.122.54.54,0,0,0-.337.078,1.2,1.2,0,0,0-.316.328l-.773,1.089Zm-.183-.509-.133.346a1.549,1.549,0,0,1-.289-.123.7.7,0,0,1-.267-.237.4.4,0,0,1-.058-.25,1.5,1.5,0,0,1,.2-.45l.7-1.223-.265-.153.16-.278.265.153.3-.525.483-.009-.425.741.359.207-.16.278-.359-.207-.713,1.243a.71.71,0,0,0-.095.209.171.171,0,0,0,.021.105.276.276,0,0,0,.107.1A1.29,1.29,0,0,0,215.778,915.465Zm-1.9-.612,1.537-3.006.369.189-1.537,3.007Zm-.5-1.576a3.036,3.036,0,0,1-.688-.1,1.562,1.562,0,0,0-.368-.057.361.361,0,0,0-.2.065.361.361,0,0,0-.11.463.544.544,0,0,0,.3.238.852.852,0,0,0,.434.059.641.641,0,0,0,.359-.164.992.992,0,0,0,.213-.36Zm-.306.868a1.555,1.555,0,0,1-.515.1,1.272,1.272,0,0,1-.455-.093.888.888,0,0,1-.5-.41.646.646,0,0,1-.018-.546.675.675,0,0,1,.482-.417,1.018,1.018,0,0,1,.327-.017,3.129,3.129,0,0,1,.366.078,3.771,3.771,0,0,0,.74.139l.042-.1a.457.457,0,0,0,.021-.375.694.694,0,0,0-.388-.3.728.728,0,0,0-.44-.063.623.623,0,0,0-.325.263l-.356-.2a1,1,0,0,1,.323-.325.805.805,0,0,1,.432-.095,1.644,1.644,0,0,1,.548.124,1.47,1.47,0,0,1,.448.256.675.675,0,0,1,.2.278.663.663,0,0,1,.017.311,2.371,2.371,0,0,1-.12.362l-.2.512a5.911,5.911,0,0,0-.243.689.935.935,0,0,0-.014.312l-.4-.159A.929.929,0,0,1,213.067,914.145Zm-3.419-2.341,1.309.372a.83.83,0,0,0-.024-.488.634.634,0,0,0-.427-.371.657.657,0,0,0-.513.053A.761.761,0,0,0,209.647,911.8Zm1.123,1.011.4.172a1.037,1.037,0,0,1-.518.457,1.265,1.265,0,0,1-1.453-.542,1.292,1.292,0,0,1-.049-.976,1.349,1.349,0,0,1,.565-.833,1.069,1.069,0,0,1,.883-.1,1.04,1.04,0,0,1,.677.539,1.33,1.33,0,0,1,.042.988c-.007.023-.017.059-.032.105l-1.751-.5a.94.94,0,0,0,.051.655.676.676,0,0,0,.432.345.627.627,0,0,0,.406-.01A.8.8,0,0,0,210.77,912.814Zm-5.124-.132.425-3.351.444.057-.175,1.381,1.728.22.175-1.381.444.057-.425,3.351-.444-.057.2-1.577-1.728-.22-.2,1.577Zm-2.439.053-.085-3.377.414-.011.085,3.377Zm-1.2-1.124a3.019,3.019,0,0,1-.653.24,1.566,1.566,0,0,0-.349.128.364.364,0,0,0-.145.153.353.353,0,0,0-.033.2.348.348,0,0,0,.159.256.545.545,0,0,0,.378.063.862.862,0,0,0,.41-.158.645.645,0,0,0,.236-.317.994.994,0,0,0,.014-.418Zm.148.909a1.536,1.536,0,0,1-.406.331,1.262,1.262,0,0,1-.444.138.888.888,0,0,1-.639-.117.644.644,0,0,1-.278-.47.674.674,0,0,1,.039-.336.682.682,0,0,1,.183-.263,1.019,1.019,0,0,1,.279-.172,3.111,3.111,0,0,1,.358-.108,3.767,3.767,0,0,0,.715-.235c-.005-.056-.009-.092-.011-.107a.456.456,0,0,0-.162-.338.692.692,0,0,0-.486-.079.732.732,0,0,0-.416.157.626.626,0,0,0-.159.387l-.409,0a1.007,1.007,0,0,1,.128-.441.807.807,0,0,1,.333-.292,1.645,1.645,0,0,1,.54-.156,1.469,1.469,0,0,1,.515.009.582.582,0,0,1,.473.412,2.385,2.385,0,0,1,.068.376l.069.546a5.938,5.938,0,0,0,.118.721.938.938,0,0,0,.137.28l-.43.055A.922.922,0,0,1,202.159,912.52Zm-4.084,1.151-.668-2.355.358-.1.095.334a.88.88,0,0,1,.638-.6,1.02,1.02,0,0,1,.412-.035.641.641,0,0,1,.324.125.794.794,0,0,1,.207.259,2.42,2.42,0,0,1,.132.382l.41,1.446-.4.113-.406-1.431a1.127,1.127,0,0,0-.149-.352.4.4,0,0,0-.219-.146.545.545,0,0,0-.3.007.666.666,0,0,0-.392.286.83.83,0,0,0-.01.666l.364,1.285Zm-2.653-.326a1.037,1.037,0,0,0,.447.578.685.685,0,0,0,.959-.38,1.064,1.064,0,0,0-.071-.74,1,1,0,0,0-.443-.562.686.686,0,0,0-.958.377A1.034,1.034,0,0,0,195.422,913.345Zm-.394.155a1.258,1.258,0,0,1-.017-1.074,1.137,1.137,0,0,1,.615-.535,1.1,1.1,0,0,1,.887,0,1.253,1.253,0,0,1,.631.731,1.613,1.613,0,0,1,.14.742,1,1,0,0,1-.23.542,1.2,1.2,0,0,1-.494.356,1.1,1.1,0,0,1-.892,0A1.311,1.311,0,0,1,195.027,913.5Zm-.342,1.556-1.114-2.179.369-.19,1.114,2.179Zm-1.322-2.587-.215-.42.369-.189.215.42Zm.77,2.446.231.289a1.538,1.538,0,0,1-.252.188.705.705,0,0,1-.338.112.4.4,0,0,1-.245-.076,1.5,1.5,0,0,1-.288-.4l-.7-1.223-.265.153-.16-.278.265-.153-.3-.525.235-.423.425.741.359-.207.159.278-.359.207.714,1.243a.7.7,0,0,0,.133.187.17.17,0,0,0,.1.035.274.274,0,0,0,.137-.045A1.284,1.284,0,0,0,194.134,914.916Zm-2.209.317a3.065,3.065,0,0,1-.463.52,1.569,1.569,0,0,0-.248.278.364.364,0,0,0-.056.2.354.354,0,0,0,.066.194.349.349,0,0,0,.261.151.545.545,0,0,0,.363-.124.858.858,0,0,0,.287-.333.646.646,0,0,0,.059-.391,1,1,0,0,0-.185-.375Zm.559.73a1.557,1.557,0,0,1-.2.484,1.272,1.272,0,0,1-.326.332.89.89,0,0,1-.618.2.645.645,0,0,1-.467-.283.673.673,0,0,1-.123-.315.685.685,0,0,1,.037-.318,1.025,1.025,0,0,1,.164-.284,3.181,3.181,0,0,1,.265-.265,3.787,3.787,0,0,0,.52-.545l-.061-.089a.455.455,0,0,0-.3-.222.7.7,0,0,0-.466.16.734.734,0,0,0-.293.335.626.626,0,0,0,.042.417l-.363.189a1,1,0,0,1-.1-.449.807.807,0,0,1,.157-.415,1.641,1.641,0,0,1,.4-.393,1.47,1.47,0,0,1,.458-.236.67.67,0,0,1,.342-.016.661.661,0,0,1,.269.155,2.426,2.426,0,0,1,.237.3l.318.449a5.968,5.968,0,0,0,.444.58.938.938,0,0,0,.254.182l-.353.251A.908.908,0,0,1,192.484,915.964Zm-2.3.976.343-.223a1.049,1.049,0,0,1,.17.719,1,1,0,0,1-.355.621,1.045,1.045,0,0,1-.822.28,1.323,1.323,0,0,1-.843-.51,1.7,1.7,0,0,1-.354-.61.909.909,0,0,1,.011-.6,1.181,1.181,0,0,1,.343-.494,1.01,1.01,0,0,1,.623-.274.921.921,0,0,1,.619.22l-.262.309a.667.667,0,0,0-.4-.147.528.528,0,0,0-.348.138.647.647,0,0,0-.238.5,1.065,1.065,0,0,0,.316.665,1.1,1.1,0,0,0,.61.417.616.616,0,0,0,.518-.154.581.581,0,0,0,.21-.38A.739.739,0,0,0,190.184,916.939Zm-1.347,2.449-.275-.238a.893.893,0,0,1-.192.858.993.993,0,0,1-.326.251.672.672,0,0,1-.339.074.782.782,0,0,1-.315-.105,2.153,2.153,0,0,1-.308-.234L185.939,919l.271-.314,1.022.887a2.386,2.386,0,0,0,.346.267.425.425,0,0,0,.3.043.508.508,0,0,0,.275-.175.677.677,0,0,0,.156-.326.536.536,0,0,0-.045-.345,1.308,1.308,0,0,0-.316-.364l-.988-.857.272-.314,1.847,1.6Zm-3.439,2.392a1.053,1.053,0,0,0,.686.244.6.6,0,0,0,.46-.247.592.592,0,0,0,.087-.506,1.021,1.021,0,0,0-.441-.548,1.139,1.139,0,0,0-.71-.268.6.6,0,0,0-.467.254.578.578,0,0,0-.085.508A1.11,1.11,0,0,0,185.4,921.781Zm1.752-.362-.253-.18a.762.762,0,0,1-.1.767.955.955,0,0,1-.442.345,1.061,1.061,0,0,1-.585.05,1.554,1.554,0,0,1-.618-.275,1.737,1.737,0,0,1-.469-.484.96.96,0,0,1,.027-1.1.81.81,0,0,1,.3-.267.826.826,0,0,1,.361-.088l-.988-.7.24-.339,2.748,1.958Zm-2.381,4-3-1.54,1.11-2.171.352.181-.906,1.772.922.473.848-1.659.352.181-.848,1.659,1.023.525.942-1.844.352.181Zm-1.291,3.778-3.243-.923.113-.4,1.167.332a.919.919,0,0,1-.125-.794.985.985,0,0,1,.231-.423.627.627,0,0,1,.362-.194,1.364,1.364,0,0,1,.55.067l1.488.424-.113.4-1.486-.423a.641.641,0,0,0-.471.005.5.5,0,0,0-.239.326.669.669,0,0,0,0,.358.542.542,0,0,0,.186.292,1.2,1.2,0,0,0,.414.189l1.283.365Zm-.463.333.37.009a1.537,1.537,0,0,1-.018.314.709.709,0,0,1-.132.332.4.4,0,0,1-.215.139,1.488,1.488,0,0,1-.491-.037l-1.386-.248-.054.3-.315-.056.054-.3-.6-.107-.172-.452.84.15.073-.409.315.056-.073.409,1.409.252a.719.719,0,0,0,.229.019.172.172,0,0,0,.092-.056.282.282,0,0,0,.054-.134A1.269,1.269,0,0,0,183.016,929.533Zm-1.171,1.842a3.045,3.045,0,0,1,.069.693,1.571,1.571,0,0,0,.036.371.364.364,0,0,0,.112.179.361.361,0,0,0,.475-.007.547.547,0,0,0,.155-.352.861.861,0,0,0-.05-.436.643.643,0,0,0-.247-.308.988.988,0,0,0-.4-.118Zm.915.083a1.55,1.55,0,0,1,.219.476,1.273,1.273,0,0,1,.023.465.892.892,0,0,1-.273.591.643.643,0,0,1-.524.152.67.67,0,0,1-.314-.122.679.679,0,0,1-.208-.243,1.014,1.014,0,0,1-.1-.314,3.155,3.155,0,0,1-.015-.374,3.772,3.772,0,0,0-.048-.753l-.106-.016a.455.455,0,0,0-.368.072.7.7,0,0,0-.2.452.738.738,0,0,0,.047.443.625.625,0,0,0,.335.251l-.107.4a1,1,0,0,1-.394-.234.807.807,0,0,1-.2-.4,1.65,1.65,0,0,1-.015-.563,1.473,1.473,0,0,1,.137-.5.582.582,0,0,1,.517-.356,2.42,2.42,0,0,1,.38.028l.545.069a5.916,5.916,0,0,0,.726.066.932.932,0,0,0,.305-.063l-.055.431A.919.919,0,0,1,182.761,931.459Zm.145,4.253-2.443.062-.009-.372.347-.009a.88.88,0,0,1-.418-.767,1.032,1.032,0,0,1,.069-.408.642.642,0,0,1,.2-.283.792.792,0,0,1,.3-.137,2.428,2.428,0,0,1,.4-.033l1.5-.038.011.415-1.484.037a1.109,1.109,0,0,0-.377.058.4.4,0,0,0-.2.176.551.551,0,0,0-.067.291.667.667,0,0,0,.179.452.825.825,0,0,0,.641.176l1.333-.034Zm.3,2.607-2.424.309-.047-.37.344-.044a.88.88,0,0,1-.494-.721,1.027,1.027,0,0,1,.027-.413.638.638,0,0,1,.171-.3.8.8,0,0,1,.286-.166,2.41,2.41,0,0,1,.4-.073l1.489-.19.052.412-1.473.188a1.109,1.109,0,0,0-.37.1.4.4,0,0,0-.177.2.552.552,0,0,0-.037.3.665.665,0,0,0,.224.431.824.824,0,0,0,.655.11l1.323-.169Zm-.948,1.37a3.046,3.046,0,0,1,.335.611,1.587,1.587,0,0,0,.178.327.362.362,0,0,0,.173.121.354.354,0,0,0,.2,0,.349.349,0,0,0,.229-.2.547.547,0,0,0,.005-.384.862.862,0,0,0-.217-.382.639.639,0,0,0-.348-.186.985.985,0,0,0-.415.048Zm.874-.283a1.551,1.551,0,0,1,.388.352,1.274,1.274,0,0,1,.2.419.893.893,0,0,1-.019.65.645.645,0,0,1-.422.346.675.675,0,0,1-.624-.131,1.021,1.021,0,0,1-.212-.25,3.163,3.163,0,0,1-.16-.339,3.8,3.8,0,0,0-.339-.674l-.1.027a.455.455,0,0,0-.31.211.7.7,0,0,0-.005.494.734.734,0,0,0,.217.389.624.624,0,0,0,.406.1l.056.406a1,1,0,0,1-.454-.06.807.807,0,0,1-.337-.287,1.644,1.644,0,0,1-.235-.512,1.476,1.476,0,0,1-.069-.512.677.677,0,0,1,.1-.328.663.663,0,0,1,.236-.2,2.435,2.435,0,0,1,.36-.124l.529-.15a5.933,5.933,0,0,0,.694-.225.941.941,0,0,0,.256-.178l.118.418A.926.926,0,0,1,183.131,939.405Zm.376,4.131a1.055,1.055,0,0,0,.58-.435.634.634,0,0,0-.35-.894,1.02,1.02,0,0,0-.71.073,1,1,0,0,0-.555.434.617.617,0,0,0-.035.53.6.6,0,0,0,.38.356A.99.99,0,0,0,183.507,943.536Zm1.488-.223-.094-.394a.383.383,0,0,0,.2-.231.7.7,0,0,0-.048-.435.742.742,0,0,0-.269-.372.563.563,0,0,0-.376-.08,2.656,2.656,0,0,0-.5.167.853.853,0,0,1,.546.513.926.926,0,0,1-.052.861,1.393,1.393,0,0,1-.708.577,1.622,1.622,0,0,1-.646.119,1.006,1.006,0,0,1-.559-.174.989.989,0,0,1-.357-.468.874.874,0,0,1,.067-.794l-.28.111-.14-.356,1.963-.776a1.99,1.99,0,0,1,.794-.189.848.848,0,0,1,.485.2,1.281,1.281,0,0,1,.356.526,1.168,1.168,0,0,1,.076.729A.66.66,0,0,1,185,943.313Zm-.812,1.566a3.05,3.05,0,0,1,.473.512,1.543,1.543,0,0,0,.252.273.365.365,0,0,0,.2.075.353.353,0,0,0,.2-.048.349.349,0,0,0,.175-.246.545.545,0,0,0-.088-.374.859.859,0,0,0-.3-.318.644.644,0,0,0-.383-.1.994.994,0,0,0-.39.148Zm.78-.487a1.548,1.548,0,0,1,.462.247,1.272,1.272,0,0,1,.3.357.894.894,0,0,1,.138.636.646.646,0,0,1-.326.438.672.672,0,0,1-.324.093.681.681,0,0,1-.313-.068,1.025,1.025,0,0,1-.266-.191,3.215,3.215,0,0,1-.238-.29,3.8,3.8,0,0,0-.492-.571l-.094.052a.455.455,0,0,0-.249.28.7.7,0,0,0,.114.48.732.732,0,0,0,.3.324.62.62,0,0,0,.418,0l.153.38a1,1,0,0,1-.455.052.8.8,0,0,1-.4-.2,1.656,1.656,0,0,1-.352-.44,1.482,1.482,0,0,1-.191-.48.68.68,0,0,1,.017-.343.665.665,0,0,1,.18-.254,2.421,2.421,0,0,1,.32-.208l.476-.274a5.993,5.993,0,0,0,.619-.387.94.94,0,0,0,.205-.235l.216.376A.918.918,0,0,1,184.963,944.392Zm1.709,3.88-.277-.3a.87.87,0,0,0,.348-.426.457.457,0,0,0-.09-.374.53.53,0,0,0-.23-.191.4.4,0,0,0-.268-.015,1.4,1.4,0,0,0-.37.208l-1.894,1.349-.259-.365,1.872-1.334a1.665,1.665,0,0,1,.593-.3.728.728,0,0,1,.476.059,1.061,1.061,0,0,1,.4.354.878.878,0,0,1,.186.7A1.056,1.056,0,0,1,186.672,948.273Zm2.228,1.078-1.768,1.69-.286-.3,1.769-1.69Zm-2.1,2.005-.341.326-.286-.3.341-.326Zm3.223-.9-1.686,1.772-.269-.257.258-.271a.993.993,0,0,1-.427.066.457.457,0,0,1-.25-.123.823.823,0,0,1-.218-.39l.37-.175a.612.612,0,0,0,.16.27.39.39,0,0,0,.232.109.441.441,0,0,0,.267-.058,1.582,1.582,0,0,0,.383-.3l.881-.926Zm2.03,1.649-2.083,2.656-.326-.256.75-.956a.913.913,0,0,1-.781-.185.978.978,0,0,1-.3-.374.629.629,0,0,1-.042-.409,1.365,1.365,0,0,1,.271-.484l.956-1.219.326.257-.955,1.217a.646.646,0,0,0-.174.438.5.5,0,0,0,.21.346.664.664,0,0,0,.329.138.539.539,0,0,0,.341-.062,1.189,1.189,0,0,0,.332-.312l.824-1.051Zm2.236,2.607-.382-.176A.94.94,0,0,0,194,954.1a.772.772,0,0,0-.162-.4,1.3,1.3,0,0,0-.4-.346,1.236,1.236,0,0,0-.429-.159.625.625,0,0,0-.356.037.49.49,0,0,0-.227.2.443.443,0,0,0-.058.286.693.693,0,0,0,.164.324,6.222,6.222,0,0,0,.439.442,3.063,3.063,0,0,1,.459.508.915.915,0,0,1,.154.452.769.769,0,0,1-.106.424.856.856,0,0,1-.364.342.892.892,0,0,1-.535.082,1.594,1.594,0,0,1-.594-.209,1.679,1.679,0,0,1-.512-.435.952.952,0,0,1-.2-.529,1.025,1.025,0,0,1,.121-.544l.388.186a.689.689,0,0,0-.038.535.909.909,0,0,0,.428.436.941.941,0,0,0,.586.166.445.445,0,0,0,.339-.218.385.385,0,0,0,.035-.325,1.777,1.777,0,0,0-.463-.544,4.487,4.487,0,0,1-.54-.56,1.02,1.02,0,0,1-.205-.515.832.832,0,0,1,.117-.485.911.911,0,0,1,.386-.363,1.014,1.014,0,0,1,.568-.1,1.541,1.541,0,0,1,.628.21,1.94,1.94,0,0,1,.6.5,1.069,1.069,0,0,1,.22.59A1.137,1.137,0,0,1,194.29,954.709Z" transform="translate(-158.306 -884.302)" fill="#021a60"></path>
      <path id="Path_68-2" data-name="Path 68" d="M298.95,993.371l-.217-.3a1.534,1.534,0,0,1,.26-.175.7.7,0,0,1,.344-.1.4.4,0,0,1,.24.087,1.488,1.488,0,0,1,.268.414l.642,1.255.273-.14.146.286-.272.14.276.539-.255.411-.389-.761-.369.189-.146-.285.369-.189-.653-1.277a.728.728,0,0,0-.124-.193.173.173,0,0,0-.1-.04.281.281,0,0,0-.139.038,1.3,1.3,0,0,0-.153.1m3.17-1.448-.309.277a.573.573,0,0,0-.366-.214.672.672,0,0,0-.442.128.652.652,0,0,0-.295.328.348.348,0,0,0,.031.3.25.25,0,0,0,.223.119,1.846,1.846,0,0,0,.432-.111,3.873,3.873,0,0,1,.638-.174.6.6,0,0,1,.6.278.63.63,0,0,1,.1.3.672.672,0,0,1-.047.3.868.868,0,0,1-.156.243,1.244,1.244,0,0,1-.274.235,1.391,1.391,0,0,1-.469.2.683.683,0,0,1-.391-.016.891.891,0,0,1-.325-.243l.31-.267a.449.449,0,0,0,.3.165.573.573,0,0,0,.371-.112.676.676,0,0,0,.291-.3.276.276,0,0,0-.017-.251.227.227,0,0,0-.121-.1.368.368,0,0,0-.193-.007c-.043.009-.164.045-.364.108a5.109,5.109,0,0,1-.619.169.622.622,0,0,1-.347-.035.6.6,0,0,1-.275-.245.69.69,0,0,1-.108-.393.79.79,0,0,1,.141-.427,1.272,1.272,0,0,1,.38-.363,1.15,1.15,0,0,1,.718-.226A.917.917,0,0,1,302.12,991.923Zm.283-1.145.225.286a.892.892,0,0,1,.351-.806.988.988,0,0,1,.368-.184.669.669,0,0,1,.347-.008.788.788,0,0,1,.29.163,2.166,2.166,0,0,1,.258.289l.934,1.191-.326.257-.836-1.065a2.451,2.451,0,0,0-.29-.328.427.427,0,0,0-.288-.1.508.508,0,0,0-.3.12.677.677,0,0,0-.215.29.54.54,0,0,0-.021.347,1.316,1.316,0,0,0,.241.417l.807,1.03-.326.256-1.51-1.925Zm2.373-2.1,1.686,1.772-.269.257-.258-.271a1,1,0,0,1,.046.431.459.459,0,0,1-.135.244.824.824,0,0,1-.4.2l-.157-.379a.61.61,0,0,0,.277-.147.393.393,0,0,0,.119-.227.444.444,0,0,0-.045-.27,1.594,1.594,0,0,0-.283-.4l-.881-.926Zm1.182-1.344,2.249,1.952.728-.842.3.26-1.748,2.022-.3-.26.728-.841-2.249-1.953Zm3.714-2.974-.678,1.182a.822.822,0,0,0,.478.1.632.632,0,0,0,.463-.325.66.66,0,0,0,.073-.511A.764.764,0,0,0,309.673,984.359Zm-1.252.847-.263.344a1.04,1.04,0,0,1-.316-.614,1.129,1.129,0,0,1,.169-.709,1.113,1.113,0,0,1,.708-.572,1.284,1.284,0,0,1,.957.189,1.348,1.348,0,0,1,.67.751,1.075,1.075,0,0,1-.115.884,1.039,1.039,0,0,1-.686.527,1.322,1.322,0,0,1-.967-.2l-.094-.057.907-1.581a.935.935,0,0,0-.647-.109.675.675,0,0,0-.439.336.631.631,0,0,0-.089.4A.8.8,0,0,0,308.421,985.205Zm.569-2.814,3.072,1.392-.171.378-3.072-1.391Zm1.974-1.689a1.267,1.267,0,0,0-.638-.09.592.592,0,0,0-.4.919,1.069,1.069,0,0,0,.6.413,1.086,1.086,0,0,0,.728.047.578.578,0,0,0,.362-.362.6.6,0,0,0-.073-.52A1.03,1.03,0,0,0,310.964,980.7Zm-1.176-.394.124-.367,3.194,1.083-.133.393-1.14-.386a.824.824,0,0,1,.1.74,1.032,1.032,0,0,1-.222.376.879.879,0,0,1-.348.232,1.234,1.234,0,0,1-.44.066,1.618,1.618,0,0,1-.493-.089,1.392,1.392,0,0,1-.818-.605.974.974,0,0,1-.086-.817.779.779,0,0,1,.558-.528Zm1.593-1.107a3.078,3.078,0,0,1,0-.7,1.568,1.568,0,0,0,0-.372.367.367,0,0,0-.093-.19.351.351,0,0,0-.178-.1.347.347,0,0,0-.295.061.544.544,0,0,0-.189.334.858.858,0,0,0,.006.44.642.642,0,0,0,.215.331.992.992,0,0,0,.386.158Zm-.9-.175a1.55,1.55,0,0,1-.17-.5,1.28,1.28,0,0,1,.024-.465.893.893,0,0,1,.331-.56.644.644,0,0,1,.536-.1.671.671,0,0,1,.3.154.684.684,0,0,1,.183.263,1.012,1.012,0,0,1,.065.322,3.132,3.132,0,0,1-.023.374,3.8,3.8,0,0,0-.028.754l.1.027a.453.453,0,0,0,.373-.035.7.7,0,0,0,.243-.43.737.737,0,0,0,0-.445.623.623,0,0,0-.308-.283l.146-.383a1.006,1.006,0,0,1,.369.272.809.809,0,0,1,.157.414,1.652,1.652,0,0,1-.041.562,1.475,1.475,0,0,1-.187.482.581.581,0,0,1-.55.3,2.38,2.38,0,0,1-.375-.066l-.535-.124a5.914,5.914,0,0,0-.716-.139.942.942,0,0,0-.31.032l.1-.423A.923.923,0,0,1,310.479,979.027Zm.474-1.989-.37.01a1.557,1.557,0,0,1,0-.314.707.707,0,0,1,.115-.338.406.406,0,0,1,.208-.149,1.5,1.5,0,0,1,.492.012l1.4.178.039-.3.318.041-.039.3.6.077.195.443-.846-.108-.052.412-.318-.04.052-.412-1.42-.181a.716.716,0,0,0-.229-.007.173.173,0,0,0-.089.06.28.28,0,0,0-.047.136A1.333,1.333,0,0,0,310.953,977.038Zm-.161-1.984,2.437.185-.031.414-2.437-.185Zm2.892.22.469.036-.031.414-.469-.036Zm-2.836-1.795,2.443.062-.009.373-.374-.009a1,1,0,0,1,.336.273.461.461,0,0,1,.077.269.826.826,0,0,1-.142.424l-.378-.158a.611.611,0,0,0,.093-.3.394.394,0,0,0-.075-.245.443.443,0,0,0-.222-.159,1.594,1.594,0,0,0-.481-.081l-1.277-.032Zm1.183-1.145a3.061,3.061,0,0,1-.206-.666,1.574,1.574,0,0,0-.11-.356.365.365,0,0,0-.145-.153.36.36,0,0,0-.464.1.547.547,0,0,0-.082.375.861.861,0,0,0,.136.418.642.642,0,0,0,.3.252.984.984,0,0,0,.416.035Zm-.913.1a1.557,1.557,0,0,1-.31-.423,1.279,1.279,0,0,1-.116-.451.893.893,0,0,1,.149-.634.645.645,0,0,1,.483-.254.668.668,0,0,1,.332.057.683.683,0,0,1,.253.2,1.012,1.012,0,0,1,.158.288,3.078,3.078,0,0,1,.09.364,3.781,3.781,0,0,0,.2.728l.107-.006a.453.453,0,0,0,.346-.145.7.7,0,0,0,.1-.483.733.733,0,0,0-.135-.424.622.622,0,0,0-.378-.179l.025-.409a1,1,0,0,1,.433.15.807.807,0,0,1,.273.348,1.645,1.645,0,0,1,.128.549,1.484,1.484,0,0,1-.035.515.677.677,0,0,1-.163.3.661.661,0,0,1-.272.151,2.379,2.379,0,0,1-.378.049l-.548.042a5.923,5.923,0,0,0-.725.081.935.935,0,0,0-.287.123l-.033-.433A.92.92,0,0,1,311.119,972.436Zm-.886-4.156,3.319-.594.073.409-1.195.214a.918.918,0,0,1,.46.659.98.98,0,0,1-.023.482.628.628,0,0,1-.24.333,1.365,1.365,0,0,1-.523.181l-1.523.272-.073-.409,1.521-.272a.644.644,0,0,0,.421-.211.5.5,0,0,0,.073-.4.666.666,0,0,0-.154-.322.541.541,0,0,0-.3-.181,1.192,1.192,0,0,0-.455.012l-1.313.235Zm.827-1.287.036.461a1.5,1.5,0,0,1-.954-.209,1.387,1.387,0,0,1-.559-.752,1.6,1.6,0,0,1-.073-.912,1.385,1.385,0,0,1,.442-.7,2.3,2.3,0,0,1,.8-.459,1.982,1.982,0,0,1,.934-.1,1.38,1.38,0,0,1,.747.352,1.669,1.669,0,0,1,.454.71,1.383,1.383,0,0,1,.029.889,1.337,1.337,0,0,1-.532.688l-.238-.382a1.043,1.043,0,0,0,.4-.494.906.906,0,0,0-.021-.586,1.089,1.089,0,0,0-.384-.556.981.981,0,0,0-.591-.187,2.007,2.007,0,0,0-.647.107,2.058,2.058,0,0,0-.671.359.934.934,0,0,0-.33.523,1.088,1.088,0,0,0,.033.592.957.957,0,0,0,.407.531A1.106,1.106,0,0,0,311.06,966.993Z" transform="translate(-243.063 -923.562)" fill="#021a60"></path>
      <g id="Group_14-2" data-name="Group 14" transform="translate(12.791 81.467)">
        <path id="Path_69-2" data-name="Path 69" d="M165.037,1114.768s1.2-.162.161-1.156c0,0-7.985-5.645-12.929-6.8a48.606,48.606,0,0,1,2.781,5.883s-4.856.8-6.357,2.123c2.562.355,7.183,2.553,9.447,4.2Z" transform="translate(-148.694 -1106.816)" fill="#ffca18" fill-rule="evenodd"></path>
        <g id="Group_13-2" data-name="Group 13" clip-path="url(#clip-path-2)">
          <rect id="Rectangle_10-2" data-name="Rectangle 10" width="19.514" height="15.269" transform="matrix(0.982, -0.187, 0.187, 0.982, -2.24, 0.426)" fill="#ffca18"></rect>
        </g>
      </g>
      <g id="Group_16-2" data-name="Group 16" transform="translate(61.901 81.467)">
        <path id="Path_71-2" data-name="Path 71" d="M321.119,1114.768s-1.2-.162-.161-1.156c0,0,7.985-5.645,12.929-6.8a48.606,48.606,0,0,0-2.781,5.883s4.856.8,6.357,2.123c-2.562.355-7.183,2.553-9.447,4.2Z" transform="translate(-320.534 -1106.816)" fill="#ffca18" fill-rule="evenodd"></path>
        <g id="Group_15-2" data-name="Group 15" clip-path="url(#clip-path-3)">
          <rect id="Rectangle_11-2" data-name="Rectangle 11" width="19.514" height="15.269" transform="matrix(0.982, -0.187, 0.187, 0.982, -2.855, 0.426)" fill="#ffca18"></rect>
        </g>
      </g>
      <path id="Path_73-2" data-name="Path 73" d="M179.01,1127.5l-5.286,9.324s-6.167-3.421-5.946-4.745c0,0,2.7-1.544,5.4-7.006,0,0,.11-.827,2.367.717,0,0,3.028,2.1,3.469,1.71" transform="translate(-149.528 -1038.228)" fill="#927205" fill-rule="evenodd"></path>
      <path id="Path_74-2" data-name="Path 74" d="M320.936,1127.305l5.286,9.324s6.166-3.421,5.946-4.745c0,0-2.7-1.545-5.4-7.007,0,0-.11-.828-2.368.717,0,0-3.028,2.1-3.469,1.71" transform="translate(-258.92 -1038.09)" fill="#927205" fill-rule="evenodd"></path>
      <g id="Group_19-2" data-name="Group 19" transform="translate(18.515 87.092)">
        <g id="Group_18-2" data-name="Group 18">
          <path id="Path_75-2" data-name="Path 75" d="M174.31,1126.5s-.626.482,1.692,1.919c0,0,6.751,4.921,13,5.879s12.981,1.914,24.1-3.883c2.244-1.291,3.637-1.985,4.535-3.546a26.388,26.388,0,0,0,5.334,7.02s.783.239-2.969,2.584c0,0-8.844,7.364-25.033,7.428,0,0-14.4-.319-25.047-8.876-1.407-1.037-1.287-1.173-1.062-1.354a15.723,15.723,0,0,0,1.852-1.662c.931-1.312,2.075-2.773,2.869-4.132.294-.5.516-.975.729-1.379" transform="translate(-168.723 -1126.499)" fill="#ffca18" fill-rule="evenodd"></path>
          <g id="Group_17-2" data-name="Group 17" clip-path="url(#clip-path-4)">
            <rect id="Rectangle_12-2" data-name="Rectangle 12" width="57.517" height="27.412" transform="translate(-3.4 0.607) rotate(-10.763)" fill="#ffca18"></rect>
          </g>
        </g>
      </g>
      <path id="Path_77-2" data-name="Path 77" d="M233.477,1152.445a.934.934,0,0,0,.3.372.4.4,0,0,0,.417.015.39.39,0,0,0,.2-.287.73.73,0,0,0-.108-.476.8.8,0,0,0-.348-.385.394.394,0,0,0-.355.016.4.4,0,0,0-.208.285.692.692,0,0,0,.1.461m1.751.251-.435.234-.14-.262a.827.827,0,0,1-.135.368.738.738,0,0,1-.258.238.77.77,0,0,1-.66.035,1.146,1.146,0,0,1-.589-.574,1.134,1.134,0,0,1-.156-.8.791.791,0,0,1,.413-.526.757.757,0,0,1,.65-.029l-.475-.888.47-.252Zm-3.007.228a.516.516,0,0,0-.259-.269.363.363,0,0,0-.3.009.371.371,0,0,0-.206.239.5.5,0,0,0,.047.362Zm.2.5.52-.147a.878.878,0,0,1-.1.543.957.957,0,0,1-.435.376.9.9,0,0,1-.851.021,1.161,1.161,0,0,1-.478-.546,1.121,1.121,0,0,1-.1-.825.861.861,0,0,1,.478-.542.893.893,0,0,1,.769-.035,1.321,1.321,0,0,1,.615.72l-1.207.572a.541.541,0,0,0,.275.279.4.4,0,0,0,.334-.011.325.325,0,0,0,.161-.152A.423.423,0,0,0,232.424,1153.427Zm-2.113.372a.518.518,0,0,0-.244-.283.364.364,0,0,0-.3-.008.372.372,0,0,0-.218.228.5.5,0,0,0,.028.364Zm.175.514.528-.119a.879.879,0,0,1-.131.537.957.957,0,0,1-.455.351.9.9,0,0,1-.851-.025,1.158,1.158,0,0,1-.448-.571,1.122,1.122,0,0,1-.055-.829.861.861,0,0,1,.506-.515.892.892,0,0,1,.77.007,1.321,1.321,0,0,1,.575.752l-1.236.505a.541.541,0,0,0,.259.294.4.4,0,0,0,.333.007.325.325,0,0,0,.169-.143A.425.425,0,0,0,230.487,1154.313Zm-3.7-.39.6,1.748.4-.136a1.549,1.549,0,0,0,.312-.135.51.51,0,0,0,.176-.183.585.585,0,0,0,.051-.3,1.809,1.809,0,0,0-.111-.5,1.662,1.662,0,0,0-.215-.451.64.64,0,0,0-.238-.2.533.533,0,0,0-.288-.039,2.5,2.5,0,0,0-.444.124Zm-.686-.263.97-.333a2,2,0,0,1,.518-.121.924.924,0,0,1,.48.107,1.21,1.21,0,0,1,.4.341,2.08,2.08,0,0,1,.3.594,1.843,1.843,0,0,1,.111.59,1.225,1.225,0,0,1-.122.563.984.984,0,0,1-.3.339,1.7,1.7,0,0,1-.451.217l-1,.343Zm-1.642,2.6-.142-.515,1.012-.281.142.515Zm-2.888.3a.944.944,0,0,0,.169.447.4.4,0,0,0,.392.144.392.392,0,0,0,.28-.21.732.732,0,0,0,.045-.487.8.8,0,0,0-.211-.474.4.4,0,0,0-.342-.1.4.4,0,0,0-.286.205A.694.694,0,0,0,221.574,1156.56Zm1.586.785-.486.087-.052-.292a.83.83,0,0,1-.243.308.737.737,0,0,1-.319.145.769.769,0,0,1-.638-.172,1.147,1.147,0,0,1-.382-.729,1.131,1.131,0,0,1,.1-.814.789.789,0,0,1,.555-.37.756.756,0,0,1,.626.175l-.175-.992.525-.094Zm-2.818.469-.527.076-.288-2,.489-.071.041.284a.843.843,0,0,1,.189-.3.431.431,0,0,1,.22-.1.683.683,0,0,1,.363.049l-.1.485a.462.462,0,0,0-.261-.051.3.3,0,0,0-.18.088.424.424,0,0,0-.09.239,3.2,3.2,0,0,0,.052.677Zm-2.526-.758a.674.674,0,0,0,.177.449.463.463,0,0,0,.7-.054.684.684,0,0,0,.105-.475.67.67,0,0,0-.176-.445.445.445,0,0,0-.361-.133.45.45,0,0,0-.338.187A.675.675,0,0,0,217.815,1157.055Zm-.549.014a1.094,1.094,0,0,1,.091-.525.9.9,0,0,1,.341-.409,1.1,1.1,0,0,1,.525-.173,1,1,0,0,1,.771.24,1.033,1.033,0,0,1,.349.73,1.049,1.049,0,0,1-.236.782,1,1,0,0,1-.719.358,1.169,1.169,0,0,1-.537-.085.864.864,0,0,1-.41-.339A1.229,1.229,0,0,1,217.266,1157.069Zm-3.012,1.081-.68-2.786.58-.005.432,1.914.491-1.922.67-.006.5,1.946.407-1.954.566-.005-.646,2.8-.6.005-.568-2.083-.535,2.092Zm-2.749-.975.049-.532,1.046.1-.049.532Zm-4.134-1.994.481.095-.053.271a.793.793,0,0,1,.678-.192.679.679,0,0,1,.314.143.613.613,0,0,1,.183.282.932.932,0,0,1,.328-.182.7.7,0,0,1,.338-.015.732.732,0,0,1,.352.161.551.551,0,0,1,.174.3,1.14,1.14,0,0,1-.027.421l-.248,1.268-.523-.1.222-1.133a.854.854,0,0,0,.021-.391.254.254,0,0,0-.2-.156.369.369,0,0,0-.221.026.388.388,0,0,0-.179.17,1.454,1.454,0,0,0-.123.4l-.187.952-.523-.1.213-1.086a1.533,1.533,0,0,0,.045-.379.242.242,0,0,0-.062-.143.278.278,0,0,0-.151-.072.388.388,0,0,0-.23.022.365.365,0,0,0-.176.161,1.421,1.421,0,0,0-.122.4l-.189.963-.523-.1Zm-1.981.516a.675.675,0,0,0,.019.482.453.453,0,0,0,.3.245.445.445,0,0,0,.379-.065.684.684,0,0,0,.256-.413.67.67,0,0,0-.02-.479.446.446,0,0,0-.3-.245.451.451,0,0,0-.381.065A.674.674,0,0,0,205.391,1155.7Zm-.523-.169a1.1,1.1,0,0,1,.259-.466.9.9,0,0,1,.457-.273,1.1,1.1,0,0,1,.552.01,1.007,1.007,0,0,1,.649.481,1.035,1.035,0,0,1,.09.8,1.048,1.048,0,0,1-.48.661,1,1,0,0,1-.8.1,1.169,1.169,0,0,1-.479-.258.862.862,0,0,1-.275-.455A1.229,1.229,0,0,1,204.868,1155.528Zm-1.666-.567a.937.937,0,0,0-.064.474.4.4,0,0,0,.275.314.391.391,0,0,0,.347-.05.731.731,0,0,0,.271-.406.8.8,0,0,0,.041-.517.394.394,0,0,0-.255-.248.4.4,0,0,0-.349.043A.691.691,0,0,0,203.2,1154.962Zm1.018,1.449-.469-.157.094-.281a.829.829,0,0,1-.36.154.736.736,0,0,1-.35-.025.773.773,0,0,1-.478-.457,1.147,1.147,0,0,1,.013-.823,1.132,1.132,0,0,1,.478-.666.788.788,0,0,1,.664-.06.759.759,0,0,1,.467.454l.319-.955.506.169Zm-3.742-1.964.529.126a.385.385,0,0,0,.041.27.465.465,0,0,0,.241.185.53.53,0,0,0,.318.047.171.171,0,0,0,.119-.107.141.141,0,0,0,0-.108.435.435,0,0,0-.139-.133,2.885,2.885,0,0,1-.662-.549.523.523,0,0,1-.052-.513.562.562,0,0,1,.358-.333.963.963,0,0,1,.662.074,1.119,1.119,0,0,1,.52.357.7.7,0,0,1,.107.477l-.5-.1a.316.316,0,0,0-.046-.215.449.449,0,0,0-.216-.156.584.584,0,0,0-.3-.059.126.126,0,0,0-.1.078.119.119,0,0,0,.013.111,2.03,2.03,0,0,0,.408.328,1.489,1.489,0,0,1,.465.445.493.493,0,0,1,.007.432.61.61,0,0,1-.394.356,1.025,1.025,0,0,1-.712-.072,1.138,1.138,0,0,1-.544-.4A.771.771,0,0,1,200.479,1154.447Zm-1.033.18.811-1.853.488.215-.811,1.853Zm.92-2.1.2-.453.488.214-.2.453Zm-3.871.734.6-2.8.524.248-.444,1.911,1.278-1.516.606.288-.393,1.971,1.216-1.581.512.243-1.8,2.236-.545-.258.395-2.122-1.391,1.649Z" transform="translate(-170.043 -1056.36)" fill="#001a60"></path>
      <g id="Group_20-2" data-name="Group 20" transform="translate(36.728 40.589)">
        <path id="Path_78-2" data-name="Path 78" d="M253.483,1004.487a.271.271,0,0,1,.191.072.962.962,0,0,0,.575.287.94.94,0,0,0,.694-.359.258.258,0,0,1,.168-.072l3.712.335-.455-.814-1.676-.215c-1.748-.263-2.275.575-2.275.6a.234.234,0,0,1-.215.1.18.18,0,0,1-.168-.12.023.023,0,0,0-.024-.024c-.5-.982-2.921-.5-3.831-.216h-.048l-.383.67Z" transform="translate(-244.804 -992.269)" fill="#ffca18" fill-rule="evenodd"></path>
        <path id="Path_79-2" data-name="Path 79" d="M253.769,988.073a2.484,2.484,0,0,1,1.556.407l.048-5.2a2.011,2.011,0,0,0-1.94-.886h-.12a7.378,7.378,0,0,0-1.724.288l.048,5.7A8.6,8.6,0,0,1,253.769,988.073Z" transform="translate(-246.121 -977.077)" fill="#ffca18" fill-rule="evenodd"></path>
        <path id="Path_80-2" data-name="Path 80" d="M268.433,988.3l1.461.168-.048-5.6c-.694-.144-3.233-.646-3.688.646a.023.023,0,0,1-.024.024l-.048,5.172A3.033,3.033,0,0,1,268.433,988.3Z" transform="translate(-256.474 -977.253)" fill="#ffca18" fill-rule="evenodd"></path>
        <path id="Path_81-2" data-name="Path 81" d="M281.132,990.983V985.93l-.383-.766.048,5.22Z" transform="translate(-266.946 -979.052)" fill="#ffca18" fill-rule="evenodd"></path>
        <path id="Path_82-2" data-name="Path 82" d="M241.9,963.778a9.464,9.464,0,1,0,9.445,9.464A9.455,9.455,0,0,0,241.9,963.778Zm5.818,13.679a.227.227,0,0,1-.167.048l-4.526-.431a1.84,1.84,0,0,1-2.083,0l-4.693.455a.145.145,0,0,1-.144-.072.17.17,0,0,1-.072-.144l.024-7.256a.217.217,0,0,1,.072-.167.175.175,0,0,1,.143-.048h.79l.335-.742.12.048c0-.072.048-.1.119-.12a6.763,6.763,0,0,1,2.012-.335.3.3,0,0,1,.144-.024,2.653,2.653,0,0,1,2.131.862c.958-1.365,4.047-.551,4.166-.5.048,0,.1.048.12.072l.1.12.1-.048.311.623.838.048a.211.211,0,0,1,.215.192l.024,7.255A.217.217,0,0,1,247.715,977.457Z" transform="translate(-232.452 -963.778)" fill="#ffca18" fill-rule="evenodd"></path>
        <path id="Path_83-2" data-name="Path 83" d="M256.859,986.337l.144.287a.181.181,0,0,1,.024.1v5.891a.23.23,0,0,1-.168.215h-.048c-.024,0-.072-.024-.1-.024v.024l-3.927-.359a1.3,1.3,0,0,1-.91.431h-.048a1.437,1.437,0,0,1-.814-.359l-3.951.264v-.048a.088.088,0,0,1-.072.024c-.024,0-.024,0-.048-.024a.2.2,0,0,1-.167-.191l-.048-5.891a.18.18,0,0,1,.024-.1l.1-.192h-.407l-.048,6.8,4.526-.431a.34.34,0,0,1,.144.048,1.509,1.509,0,0,0,1.772,0,.183.183,0,0,1,.12-.048l4.358.407-.024-6.8Z" transform="translate(-242.41 -979.89)" fill="#ffca18" fill-rule="evenodd"></path>
        <path id="Path_84-2" data-name="Path 84" d="M249.388,990.516l.024.024-.048-5.292-.287.694.048,5.053Z" transform="translate(-244.325 -979.112)" fill="#ffca18" fill-rule="evenodd"></path>
      </g>
    </g>
    <g id="Group_343" data-name="Group 343" transform="translate(-892.67 -2930.919)">
      <g id="Group_47" data-name="Group 47" transform="translate(0 0)">
        <path id="Path_106" data-name="Path 106" d="M651.734,841.006v17.052h-1.657q-1.492-5.92-3.284-8.479a12.5,12.5,0,0,0-4.957-4.1c-1.168-.57-3.22-.84-6.141-.84h-4.673v48.559q0,4.826.521,6.038a4.839,4.839,0,0,0,2.084,2.108,8.267,8.267,0,0,0,4.231.919h2.084v1.712H607.1v-1.712h2.084a8.624,8.624,0,0,0,4.389-.982,4.348,4.348,0,0,0,1.894-2.235q.521-1.094.521-5.848V844.635h-4.547c-4.215,0-7.294.887-9.2,2.694q-4.026,3.756-5.083,10.729h-1.752V841.006Zm-71.547-1.427v21.807h-1.8q-2.037-8.534-7.594-13.09a19.33,19.33,0,0,0-12.582-4.549,18.472,18.472,0,0,0-10.767,3.391,19.691,19.691,0,0,0-7.167,8.875,40.285,40.285,0,0,0-2.921,15.594A52.318,52.318,0,0,0,539.487,887c1.421,4.628,3.631,8.13,6.663,10.491,3.015,2.377,6.93,3.55,11.746,3.55a22.757,22.757,0,0,0,10.846-2.6q4.926-2.591,10.388-8.954v5.436a34.331,34.331,0,0,1-10.988,8,33.158,33.158,0,0,1-13.356,2.488,38.178,38.178,0,0,1-17.824-4.041,28.558,28.558,0,0,1-12.03-11.6,32.689,32.689,0,0,1-4.231-16.117,33.38,33.38,0,0,1,4.7-17.085,33.007,33.007,0,0,1,12.662-12.536,34.156,34.156,0,0,1,16.956-4.454,38.414,38.414,0,0,1,13.972,2.869,21.855,21.855,0,0,0,5.415,1.68,3.494,3.494,0,0,0,2.558-1.094,5.985,5.985,0,0,0,1.421-3.455Zm-103.738,3.154v-1.727h33.343v1.727h-2.036a8.736,8.736,0,0,0-4.436.967,4.493,4.493,0,0,0-1.847,2.235q-.521,1.117-.521,5.848v30.825q0,9.057-1.8,13.169a15.222,15.222,0,0,1-6.41,6.878,21.129,21.129,0,0,1-11.067,2.758q-7.909,0-12.788-4.184-4.9-4.184-4.894-9.24a7.161,7.161,0,0,1,1.989-5.261,6.578,6.578,0,0,1,4.863-2.029,6.645,6.645,0,0,1,4.736,1.807,5.925,5.925,0,0,1,1.926,4.469,7.069,7.069,0,0,1-.331,2.266,16.478,16.478,0,0,1-1.453,2.346,5.951,5.951,0,0,0-1.263,2.679,2.534,2.534,0,0,0,1.2,2.076,7.475,7.475,0,0,0,4.578,1.315,5.149,5.149,0,0,0,3.284-1.03,5.712,5.712,0,0,0,1.831-3.185c.347-1.426.521-5.436.521-12V851.783q0-4.826-.521-6.038a4.835,4.835,0,0,0-2.084-2.108,8.326,8.326,0,0,0-4.184-.9Z" transform="translate(-463.993 -839.579)" fill="#ffca18"></path>
      </g>
    </g>
  </g>
</svg>
