<svg id="Group_312" data-name="Group 312" xmlns="http://www.w3.org/2000/svg" width="35" height="35" viewBox="0 0 35 35">
  <g id="Ellipse_10" data-name="Ellipse 10" fill="#fbd708" stroke="#fbd708" stroke-width="1">
    <circle cx="17.5" cy="17.5" r="17.5" stroke="none"/>
    <circle cx="17.5" cy="17.5" r="17" fill="none"/>
  </g>
  <path id="Icon_awesome-phone-alt" data-name="Icon awesome-phone-alt" d="M13.735,9.991,10.642,8.666a.663.663,0,0,0-.773.191L8.5,10.53A10.236,10.236,0,0,1,3.606,5.637L5.28,4.267a.661.661,0,0,0,.191-.773L4.145.4A.667.667,0,0,0,3.386.017L.514.68A.663.663,0,0,0,0,1.326,12.812,12.812,0,0,0,12.813,14.139a.663.663,0,0,0,.646-.514l.663-2.872a.671.671,0,0,0-.387-.762Z" transform="translate(10.051 10.05)" fill="#021a60"/>
</svg>
